<svg width="24" height="24" viewBox="0 0 24 24" fill="none" xmlns="http://www.w3.org/2000/svg">
<g id="arrow_drop_down">
<mask id="mask0_353_33160" style="mask-type:alpha" maskUnits="userSpaceOnUse" x="0" y="0" width="24" height="24">
<rect id="Bounding box" x="24" y="24" width="24" height="24" transform="rotate(-180 24 24)" fill="#D9D9D9"/>
</mask>
<g mask="url(#mask0_353_33160)">
<path id="arrow_drop_down_2" d="M12.4782 9.82602L15.6293 12.9771C15.6728 13.0206 15.707 13.0691 15.732 13.1227C15.757 13.1763 15.7695 13.2338 15.7695 13.2951C15.7695 13.4176 15.7281 13.524 15.6452 13.6144C15.5624 13.7048 15.4532 13.75 15.3176 13.75L8.67921 13.75C8.54364 13.75 8.43443 13.7044 8.35158 13.6131C8.26871 13.5219 8.22728 13.4154 8.22728 13.2937C8.22728 13.2633 8.27408 13.1577 8.36768 12.9769L11.5186 9.826C11.591 9.75357 11.6659 9.70068 11.7432 9.66735C11.8206 9.63402 11.9056 9.61735 11.9984 9.61735C12.0912 9.61735 12.1762 9.63402 12.2536 9.66735C12.3309 9.70068 12.4058 9.75357 12.4782 9.82602Z" fill="#1C1B1F"/>
</g>
</g>
</svg>
