<svg width="24" height="24" viewBox="0 0 24 24" fill="none" xmlns="http://www.w3.org/2000/svg">
<g id="arrow_drop_down">
<mask id="mask0_184_98789" style="mask-type:alpha" maskUnits="userSpaceOnUse" x="0" y="0" width="24" height="24">
<rect id="Bounding box" width="24" height="24" fill="#1C1B1F"/>
</mask>
<g mask="url(#mask0_184_98789)">
<path id="arrow_drop_down_2" d="M11.5218 14.174L8.37067 11.0229C8.3272 10.9794 8.29297 10.9309 8.26797 10.8773C8.24297 10.8237 8.23047 10.7662 8.23047 10.705C8.23047 10.5824 8.2719 10.476 8.35477 10.3856C8.43762 10.2952 8.54683 10.25 8.68239 10.25H15.3208C15.4564 10.25 15.5656 10.2957 15.6484 10.3869C15.7313 10.4782 15.7727 10.5846 15.7727 10.7063C15.7727 10.7367 15.7259 10.8423 15.6323 11.0231L12.4814 14.174C12.409 14.2465 12.3341 14.2993 12.2568 14.3327C12.1794 14.366 12.0944 14.3827 12.0016 14.3827C11.9088 14.3827 11.8238 14.366 11.7464 14.3327C11.6691 14.2993 11.5942 14.2465 11.5218 14.174Z" fill="#1C1B1F"/>
</g>
</g>
</svg>
