<svg width="21" height="20" viewBox="0 0 21 20" fill="none" xmlns="http://www.w3.org/2000/svg">
<g id="arrow_right_alt">
<mask id="mask0_106_25658" style="mask-type:alpha" maskUnits="userSpaceOnUse" x="0" y="0" width="21" height="20">
<rect id="Bounding box" x="0.666016" width="20" height="20" fill="#D9D9D9"/>
</mask>
<g mask="url(#mask0_106_25658)">
<path id="arrow_right_alt_2" d="M14.175 10.5416H5.62472C5.47069 10.5416 5.34174 10.4902 5.23786 10.3874C5.13398 10.2845 5.08203 10.1569 5.08203 10.0044C5.08203 9.8519 5.13398 9.72276 5.23786 9.617C5.34174 9.51124 5.47069 9.45835 5.62472 9.45835H14.175L12.1397 7.42306C12.0297 7.31302 11.972 7.18535 11.9666 7.04006C11.9613 6.89477 12.0157 6.76443 12.1297 6.64904C12.2518 6.53367 12.3828 6.47731 12.5227 6.47998C12.6627 6.48265 12.7903 6.54167 12.9057 6.65706L15.7908 9.54221C15.8503 9.60168 15.8961 9.66983 15.9281 9.74665C15.9602 9.82345 15.9762 9.90651 15.9762 9.99583C15.9762 10.0852 15.9602 10.1682 15.9281 10.245C15.8961 10.3218 15.848 10.3951 15.7839 10.4647L12.9057 13.3429C12.7957 13.453 12.6728 13.5072 12.5371 13.5056C12.4015 13.504 12.2726 13.4455 12.1506 13.3301C12.0365 13.2147 11.9808 13.0857 11.9834 12.9431C11.9861 12.8005 12.0452 12.6715 12.1605 12.5561L14.175 10.5416Z" fill="#1C1B1F"/>
</g>
</g>
</svg>
