<svg width="16" height="8" viewBox="0 0 16 8" fill="none" xmlns="http://www.w3.org/2000/svg">
<path d="M2.61954 7.6314C2.3589 7.6314 2.14043 7.54325 1.96412 7.36694C1.78781 7.19064 1.69966 6.97217 1.69966 6.71155V5.37182H1.33589C1.07527 5.37182 0.8568 5.28367 0.680495 5.10736C0.504175 4.93104 0.416016 4.71257 0.416016 4.45194V3.54811C0.416016 3.28749 0.504175 3.06901 0.680495 2.8927C0.8568 2.71639 1.07527 2.62824 1.33589 2.62824H1.69966V1.28686C1.69966 1.026 1.78781 0.807751 1.96412 0.632112C2.14043 0.456473 2.3589 0.368652 2.61954 0.368652H14.6628C14.9234 0.368652 15.1419 0.456806 15.3182 0.633111C15.4945 0.809417 15.5826 1.02788 15.5826 1.28851V6.71022C15.5826 6.97306 15.4945 7.19231 15.3182 7.36794C15.1419 7.54358 14.9234 7.6314 14.6628 7.6314H2.61954ZM2.77495 6.54811H6.24131V1.45195H2.77495V6.54811Z" fill="#1C1B1F"/>
</svg>
