<svg width="20" height="20" viewBox="0 0 20 20" fill="none" xmlns="http://www.w3.org/2000/svg">
<path d="M6.96611 17.998C5.90011 15.779 6.46811 14.508 7.28711 13.31C8.18411 11.998 8.41611 10.7 8.41611 10.7C8.41611 10.7 9.12211 11.617 8.83911 13.052C10.0851 11.665 10.3211 9.454 10.1321 8.607C12.9491 10.576 14.1531 14.839 12.5311 17.999C21.1621 13.116 14.6781 5.809 13.5491 4.986C13.9251 5.809 13.9971 7.202 13.2361 7.879C11.9491 3 8.76811 2 8.76811 2C9.14411 4.516 7.40411 7.268 5.72611 9.324C5.66711 8.321 5.60411 7.628 5.07711 6.668C4.95911 8.491 3.56611 9.977 3.18811 11.803C2.67711 14.276 3.57111 16.087 6.96511 18L6.96611 17.998Z" fill="#1C1B1F"/>
</svg>
