<svg width="20" height="20" viewBox="0 0 20 20" fill="none" xmlns="http://www.w3.org/2000/svg">
<mask id="mask0_1499_222930" style="mask-type:alpha" maskUnits="userSpaceOnUse" x="0" y="0" width="20" height="20">
<rect width="20" height="20" fill="#D9D9D9"/>
</mask>
<g mask="url(#mask0_1499_222930)">
<path d="M4.67946 15.0833V15.9519C4.67946 16.1273 4.61799 16.2764 4.49504 16.3991C4.37208 16.5219 4.22278 16.5833 4.04715 16.5833C3.87149 16.5833 3.72251 16.5219 3.60019 16.3991C3.47785 16.2764 3.41669 16.1273 3.41669 15.9519V10.326C3.41669 10.2436 3.42577 10.1612 3.44394 10.0788C3.4621 9.99634 3.48445 9.90857 3.51098 9.81546L4.96558 6.2515C5.06276 6.00064 5.22507 5.79879 5.4525 5.64596C5.67992 5.49311 5.92812 5.41669 6.19712 5.41669H13.8029C14.0719 5.41669 14.3201 5.49311 14.5475 5.64596C14.7749 5.79879 14.9372 6.00064 15.0344 6.2515L16.489 9.81546C16.5155 9.90857 16.5379 9.99634 16.5561 10.0788C16.5742 10.1612 16.5833 10.2436 16.5833 10.326V15.9519C16.5833 16.1273 16.5218 16.2764 16.3989 16.3991C16.2759 16.5219 16.1266 16.5833 15.951 16.5833C15.7753 16.5833 15.6263 16.5219 15.504 16.3991C15.3817 16.2764 15.3205 16.1273 15.3205 15.9519V15.0833H4.67946ZM4.86056 9.48081H15.1394L14.0272 6.66829C14.0059 6.61486 13.9738 6.57346 13.9311 6.54408C13.8883 6.5147 13.8376 6.5 13.7788 6.5H6.22117C6.1624 6.5 6.11165 6.5147 6.06892 6.54408C6.02618 6.57346 5.99412 6.61486 5.97275 6.66829L4.86056 9.48081ZM6.46983 13.1218C6.70361 13.1218 6.90169 13.04 7.06408 12.8763C7.22649 12.7127 7.30769 12.5139 7.30769 12.2802C7.30769 12.0464 7.22586 11.8483 7.06221 11.6859C6.89855 11.5235 6.69984 11.4423 6.46606 11.4423C6.23228 11.4423 6.03419 11.5241 5.87179 11.6878C5.7094 11.8514 5.62821 12.0502 5.62821 12.2839C5.62821 12.5177 5.71003 12.7158 5.87369 12.8782C6.03734 13.0406 6.23606 13.1218 6.46983 13.1218ZM13.5339 13.1218C13.7677 13.1218 13.9658 13.04 14.1282 12.8763C14.2906 12.7127 14.3718 12.5139 14.3718 12.2802C14.3718 12.0464 14.29 11.8483 14.1263 11.6859C13.9627 11.5235 13.7639 11.4423 13.5302 11.4423C13.2964 11.4423 13.0983 11.5241 12.9359 11.6878C12.7735 11.8514 12.6923 12.0502 12.6923 12.2839C12.6923 12.5177 12.7741 12.7158 12.9378 12.8782C13.1014 13.0406 13.3002 13.1218 13.5339 13.1218ZM4.5 14H15.5V10.5641H4.5V14Z" fill="#1C1B1F"/>
</g>
</svg>
