<svg width="20" height="20" viewBox="0 0 20 20" fill="none" xmlns="http://www.w3.org/2000/svg">
<g id="schedule">
<mask id="mask0_106_28238" style="mask-type:alpha" maskUnits="userSpaceOnUse" x="0" y="0" width="20" height="20">
<rect id="Bounding box" width="20" height="20" fill="#D9D9D9"/>
</mask>
<g mask="url(#mask0_106_28238)">
<path id="schedule_2" d="M10.541 9.45513V5.54165C10.541 5.38819 10.4895 5.25955 10.3864 5.15573C10.2834 5.05191 10.1557 5 10.0034 5C9.85113 5 9.72209 5.05191 9.61633 5.15573C9.51056 5.25955 9.45768 5.38819 9.45768 5.54165V9.64744C9.45768 9.74553 9.47584 9.83362 9.51216 9.91171C9.54848 9.98979 9.5987 10.0609 9.66281 10.125L12.5554 13.0176C12.673 13.1351 12.8017 13.1918 12.9416 13.1875C13.0816 13.1832 13.2119 13.1207 13.3327 13C13.4534 12.8793 13.5137 12.7503 13.5137 12.613C13.5137 12.4757 13.4511 12.345 13.3257 12.2207L10.541 9.45513ZM10.0007 17.5833C8.95613 17.5833 7.97424 17.386 7.05506 16.9912C6.13588 16.5965 5.33036 16.0534 4.63852 15.3619C3.94665 14.6703 3.40327 13.8642 3.00837 12.9434C2.61347 12.0226 2.41602 11.0388 2.41602 9.99185C2.41602 8.94494 2.61338 7.96059 3.0081 7.03881C3.40282 6.11702 3.94595 5.31367 4.63747 4.62877C5.32902 3.94385 6.13518 3.40394 7.05595 3.00904C7.97673 2.61414 8.96057 2.41669 10.0075 2.41669C11.0544 2.41669 12.0388 2.61572 12.9607 3.01377C13.8825 3.41183 14.6844 3.95203 15.3664 4.6344C16.0483 5.31677 16.5881 6.11919 16.9859 7.04167C17.3837 7.96413 17.5826 8.94977 17.5826 9.9986C17.5826 11.0432 17.3853 12.0251 16.9906 12.9443C16.5958 13.8635 16.0562 14.669 15.3716 15.3608C14.687 16.0527 13.8831 16.5961 12.9599 16.991C12.0368 17.3859 11.0504 17.5833 10.0007 17.5833ZM10.0093 16.5C11.8076 16.5 13.3388 15.8646 14.603 14.5938C15.8672 13.3229 16.4993 11.7884 16.4993 9.99006C16.4993 8.19177 15.8672 6.66052 14.603 5.39631C13.3388 4.1321 11.8076 3.5 10.0093 3.5C8.21097 3.5 6.67641 4.1321 5.40558 5.39631C4.13474 6.66052 3.49933 8.19177 3.49933 9.99006C3.49933 11.7884 4.13474 13.3229 5.40558 14.5938C6.67641 15.8646 8.21097 16.5 10.0093 16.5Z" fill="#1C1B1F"/>
</g>
</g>
</svg>
