<svg width="20" height="20" viewBox="0 0 20 20" fill="none" xmlns="http://www.w3.org/2000/svg">
<path fill-rule="evenodd" clip-rule="evenodd" d="M3.21312 15.1749C3.66717 15.6299 4.21942 15.8573 4.86987 15.8573C5.52033 15.8573 6.07321 15.6303 6.52851 15.1762C6.98383 14.7222 7.21149 14.1693 7.21149 13.5176H12.6923C12.6923 14.1675 12.9193 14.72 13.3734 15.1749C13.8274 15.6299 14.3797 15.8573 15.0301 15.8573C15.6806 15.8573 16.2335 15.6299 16.6888 15.1749C17.1441 14.72 17.3718 14.1675 17.3718 13.5176H18.0416C18.2314 13.5176 18.3905 13.4534 18.5189 13.325C18.6473 13.1966 18.7115 13.0375 18.7115 12.8477V10.9718C18.7115 10.9015 18.6989 10.8362 18.6738 10.7759C18.6487 10.7157 18.618 10.6541 18.5817 10.5914L16.4294 7.54327C16.2913 7.36886 16.1267 7.23178 15.9356 7.13202C15.7445 7.03227 15.5421 6.98239 15.3285 6.98239H13.8077V5.48239C13.8077 5.11396 13.6765 4.79856 13.4141 4.5362C13.1517 4.27383 12.8363 4.14264 12.4679 4.14264H2.62818C2.25308 4.14264 1.93602 4.27215 1.67699 4.53118C1.41797 4.79021 1.28845 5.10728 1.28845 5.48239V12.8477C1.28845 13.0375 1.35265 13.1966 1.48104 13.325C1.60942 13.4534 1.76852 13.5176 1.95833 13.5176H2.53204C2.53204 14.1675 2.75906 14.72 3.21312 15.1749ZM17.5 10.9343H13.8077V8.06568H15.3125C15.3552 8.06568 15.3939 8.07503 15.4286 8.09372C15.4634 8.11243 15.4941 8.13781 15.5208 8.16985L17.5 10.9343ZM12 6.22589H8V11.7259H12V6.22589Z" fill="#1C1B1F"/>
<path d="M6.28845 9.14264H2.78845" stroke="white" stroke-linecap="round" stroke-linejoin="round"/>
<path d="M4.28845 7.64264L2.78845 9.14264" stroke="white" stroke-linecap="round" stroke-linejoin="round"/>
<path d="M4.28845 10.6426L2.78845 9.14264" stroke="white" stroke-linecap="round" stroke-linejoin="round"/>
</svg>
