<svg width="20" height="20" viewBox="0 0 20 20" fill="none" xmlns="http://www.w3.org/2000/svg">
<g id="moving_ministry">
<mask id="mask0_184_99210" style="mask-type:alpha" maskUnits="userSpaceOnUse" x="0" y="0" width="20" height="20">
<rect id="Bounding box" width="20" height="20" fill="#D9D9D9"/>
</mask>
<g mask="url(#mask0_184_99210)">
<path id="moving_ministry_2" d="M2.09364 16.5833C1.90416 16.5833 1.74419 16.5191 1.61372 16.3907C1.48322 16.2623 1.41797 16.1032 1.41797 15.9134V4.08656C1.41797 3.89677 1.48212 3.73768 1.61043 3.60929C1.73873 3.48089 1.89772 3.41669 2.08739 3.41669H10.4407C10.6304 3.41669 10.7905 3.48089 10.9209 3.60929C11.0514 3.73768 11.1166 3.89677 11.1166 4.08656V15.9134C11.1166 16.1032 11.0524 16.2623 10.9241 16.3907C10.7957 16.5191 10.6366 16.5833 10.4468 16.5833H7.28978V13.1154H5.24486V16.5833H2.09364ZM2.5013 15.5H4.16157V12.0321H8.37309V15.5H10.0334V4.5H2.5013V15.5ZM4.16157 10.3718H5.4372V9.09617H4.16157V10.3718ZM4.16157 7.4359H5.4372V6.16027H4.16157V7.4359ZM7.09747 10.3718H8.37309V9.09617H7.09747V10.3718ZM7.09747 7.4359H8.37309V6.16027H7.09747V7.4359ZM13.0975 10.0041C13.0975 9.8518 13.1494 9.72276 13.2532 9.617C13.357 9.51124 13.4856 9.45835 13.6391 9.45835H16.519L15.4997 8.43908C15.3843 8.32371 15.3288 8.19338 15.333 8.04808C15.3373 7.90278 15.3963 7.77465 15.5101 7.66369C15.6271 7.54923 15.756 7.492 15.8969 7.492C16.0377 7.492 16.1649 7.5497 16.2785 7.66508L18.1279 9.53527C18.2646 9.66697 18.333 9.82061 18.333 9.99621C18.333 10.1718 18.2646 10.328 18.1279 10.4647L16.2577 12.3349C16.1436 12.4485 16.0184 12.501 15.8821 12.4923C15.7457 12.4835 15.6226 12.4241 15.5125 12.3141C15.3918 12.1987 15.3341 12.0684 15.3394 11.9231C15.3448 11.7778 15.4052 11.6501 15.5205 11.5401L16.519 10.5416H13.6391C13.4856 10.5416 13.357 10.4901 13.2532 10.3871C13.1494 10.2841 13.0975 10.1564 13.0975 10.0041Z" fill="#1C1B1F"/>
</g>
</g>
</svg>
