<svg width="20" height="20" viewBox="0 0 20 20" fill="none" xmlns="http://www.w3.org/2000/svg">
<mask id="mask0_316_40142" style="mask-type:alpha" maskUnits="userSpaceOnUse" x="0" y="0" width="20" height="20">
<rect width="20" height="20" fill="#D9D9D9"/>
</mask>
<g mask="url(#mask0_316_40142)">
<path d="M10.0006 17.4791C9.8051 17.4791 9.63346 17.4479 9.48569 17.3854C9.33791 17.3229 9.19546 17.2217 9.05832 17.0817L2.91892 10.9423C2.77891 10.8052 2.67766 10.6627 2.61519 10.5149C2.55272 10.3672 2.52148 10.1955 2.52148 10C2.52148 9.80449 2.5522 9.63408 2.61363 9.48879C2.67506 9.34348 2.77475 9.20186 2.91269 9.06392L9.05832 2.91831C9.19546 2.77946 9.33791 2.67851 9.48569 2.61546C9.63346 2.5524 9.8051 2.52087 10.0006 2.52087C10.1961 2.52087 10.3665 2.55292 10.5118 2.61702C10.6571 2.68113 10.8008 2.78156 10.9429 2.91831L17.0823 9.05771C17.219 9.19979 17.3195 9.34285 17.3836 9.48687C17.4477 9.63089 17.4797 9.80193 17.4797 10C17.4797 10.1955 17.4482 10.3672 17.3852 10.5149C17.3221 10.6627 17.2211 10.8052 17.0823 10.9423L10.9367 17.0879C10.7987 17.2259 10.6578 17.3255 10.5137 17.387C10.3697 17.4484 10.1987 17.4791 10.0006 17.4791ZM10.1849 16.3157L16.3163 10.1843C16.359 10.1416 16.3804 10.0801 16.3804 10C16.3804 9.91986 16.359 9.85842 16.3163 9.81569L10.1849 3.68431C10.1422 3.64157 10.0807 3.62021 10.0006 3.62021C9.92047 3.62021 9.85903 3.64157 9.8163 3.68431L3.68492 9.81569C3.64219 9.85842 3.62082 9.91986 3.62082 10C3.62082 10.0801 3.64219 10.1416 3.68492 10.1843L9.8163 16.3157C9.85903 16.3584 9.92047 16.3798 10.0006 16.3798C10.0807 16.3798 10.1422 16.3584 10.1849 16.3157ZM9.99651 10.5721C10.1488 10.5721 10.2778 10.5203 10.3836 10.4167C10.4894 10.3131 10.5423 10.1848 10.5423 10.0316V6.94006C10.5423 6.78692 10.4907 6.6574 10.3877 6.5515C10.2847 6.44561 10.157 6.39267 10.0047 6.39267C9.85241 6.39267 9.72337 6.44446 9.61761 6.54804C9.51185 6.65164 9.45896 6.78001 9.45896 6.93317V10.0247C9.45896 10.1778 9.51048 10.3074 9.61351 10.4133C9.71653 10.5192 9.8442 10.5721 9.99651 10.5721ZM9.99621 12.7516C10.1621 12.7516 10.3026 12.6955 10.4177 12.5833C10.5328 12.4711 10.5903 12.3321 10.5903 12.1662C10.5903 12.0004 10.5342 11.8599 10.422 11.7448C10.3099 11.6297 10.1709 11.5721 10.005 11.5721C9.83914 11.5721 9.69866 11.6282 9.58355 11.7404C9.46844 11.8526 9.41088 11.9916 9.41088 12.1575C9.41088 12.3233 9.46698 12.4638 9.57917 12.5789C9.69135 12.694 9.83037 12.7516 9.99621 12.7516Z" fill="#1C1B1F"/>
</g>
</svg>
