<svg width="20" height="20" viewBox="0 0 20 20" fill="none" xmlns="http://www.w3.org/2000/svg">
<mask id="mask0_1499_222945" style="mask-type:alpha" maskUnits="userSpaceOnUse" x="0" y="0" width="20" height="20">
<rect width="20" height="20" fill="#D9D9D9"/>
</mask>
<g mask="url(#mask0_1499_222945)">
<path d="M9.10418 14.8125L12.9167 10H9.81251L10.3542 5.39584L6.75001 11H9.79168L9.10418 14.8125ZM8.48082 12.0833H5.90388C5.66565 12.0833 5.49177 11.9802 5.38226 11.774C5.27276 11.5678 5.27837 11.3638 5.39909 11.1619L10.2756 3.43115C10.36 3.27411 10.4824 3.17369 10.6426 3.12988C10.8029 3.08608 10.9631 3.09089 11.1234 3.14432C11.2836 3.19774 11.4108 3.29549 11.5048 3.43757C11.5988 3.57967 11.6346 3.73778 11.6122 3.91192L11.0272 8.91669H13.8653C14.1207 8.91669 14.3023 9.02888 14.4102 9.25324C14.5181 9.4776 14.4962 9.69074 14.3445 9.89265L8.99522 16.7275C8.88839 16.8568 8.75831 16.9425 8.60499 16.9847C8.45168 17.0269 8.29918 17.0101 8.14747 16.9342C7.99576 16.8584 7.88118 16.7494 7.80374 16.6073C7.72628 16.4652 7.70571 16.3141 7.74203 16.1538L8.48082 12.0833Z" fill="#1C1B1F"/>
</g>
</svg>
