<?xml version="1.0" encoding="UTF-8"?>
<svg id="Lag_1" data-name="Lag 1" xmlns="http://www.w3.org/2000/svg" viewBox="0 0 20 20">
  <g>
    <rect x="13.25" y="3.4" width="5.69" height="13.42" rx=".89" ry=".89"/>
    <path d="m18.05,3.45c.46,0,.84.38.84.84v11.64c0,.46-.38.84-.84.84h-3.91c-.46,0-.84-.38-.84-.84V4.29c0-.46.38-.84.84-.84h3.91m0-.11h-3.91c-.52,0-.95.42-.95.95v11.64c0,.52.42.95.95.95h3.91c.52,0,.95-.42.95-.95V4.29c0-.52-.42-.95-.95-.95h0Z"/>
  </g>
  <g>
    <rect x="11.41" y="10.02" width=".97" height="7.23" rx=".29" ry=".29" transform="translate(-6.16 12.4) rotate(-45)"/>
    <path d="m14.1,16.87c-.26,0-.52-.1-.72-.3l-4.43-4.43c-.4-.4-.4-1.05,0-1.44s1.05-.4,1.44,0l4.43,4.43c.4.4.4,1.05,0,1.44-.2.2-.46.3-.72.3Z"/>
  </g>
  <path d="m3.96,11.15l-1.06-.15c.3-2.12,1.44-3.52,2.08-4.17,1.51-1.51,3.26-1.96,4.17-2.08l.15,1.06c-.78.11-2.27.49-3.56,1.78-.55.55-1.52,1.75-1.78,3.56Z"/>
  <path d="m8.39,7.88c-.11,0-.21-.03-.31-.1-.24-.17-.3-.5-.13-.75l1.26-1.8-1.8-1.26c-.24-.17-.3-.5-.13-.75.17-.24.5-.3.75-.13l2.24,1.57c.12.08.2.21.22.35.02.14,0,.28-.09.4l-1.57,2.24c-.1.15-.27.23-.44.23Z"/>
  <path d="m3.26,12.35c-.17,0-.34-.08-.44-.23l-1.57-2.24c-.17-.24-.11-.58.13-.75.24-.17.58-.11.75.13l1.26,1.8,1.8-1.26c.24-.17.58-.11.75.13.17.24.11.58-.13.75l-2.24,1.57c-.09.07-.2.1-.31.1Z"/>
</svg>