<svg width="20" height="20" viewBox="0 0 20 20" fill="none" xmlns="http://www.w3.org/2000/svg">
<mask id="mask0_1499_222935" style="mask-type:alpha" maskUnits="userSpaceOnUse" x="0" y="0" width="20" height="20">
<rect width="20" height="20" fill="#D9D9D9"/>
</mask>
<g mask="url(#mask0_1499_222935)">
<path d="M8.99979 17H4.74979C4.53729 17 4.35917 16.9281 4.21542 16.7844C4.07167 16.6406 3.99979 16.4625 3.99979 16.25V10H2.99979C2.82156 10 2.70061 9.91667 2.63694 9.75C2.57329 9.58333 2.61091 9.44444 2.74979 9.33333L9.49979 3.4375C9.65257 3.3125 9.81924 3.25 9.99979 3.25C10.1803 3.25 10.347 3.3125 10.4998 3.4375L13.9998 6.5V4.375C13.9998 4.26389 14.0345 4.17361 14.104 4.10417C14.1734 4.03472 14.2637 4 14.3748 4H15.6248C15.7359 4 15.8262 4.03472 15.8956 4.10417C15.9651 4.17361 15.9998 4.26222 15.9998 4.37V8.25L17.2498 9.33333C17.3887 9.44444 17.4263 9.58333 17.3626 9.75C17.299 9.91667 17.178 10 16.9998 10H15.9998V16.25C15.9998 16.4625 15.9279 16.6406 15.7842 16.7844C15.6404 16.9281 15.4623 17 15.2498 17H10.9998V12H8.99979V17ZM5.49979 15.5H7.49979V10.5H12.4998V15.5H14.4998V8.9375L9.99979 5L5.49979 8.9375V15.5ZM8.49979 8.5H11.4998C11.4998 8.08333 11.354 7.72917 11.0623 7.4375C10.7706 7.14583 10.4165 7 9.99979 7C9.58313 7 9.22896 7.14583 8.93729 7.4375C8.64563 7.72917 8.49979 8.08333 8.49979 8.5Z" fill="#1C1B1F"/>
</g>
</svg>
