<svg width="20" height="20" viewBox="0 0 20 20" fill="none" xmlns="http://www.w3.org/2000/svg">
<g id="location_on">
<mask id="mask0_106_28227" style="mask-type:alpha" maskUnits="userSpaceOnUse" x="0" y="0" width="20" height="20">
<rect id="Bounding box" width="20" height="20" fill="#D9D9D9"/>
</mask>
<g mask="url(#mask0_106_28227)">
<path id="location_on_2" d="M10.0003 16.1571C11.589 14.7671 12.8262 13.4124 13.7119 12.093C14.5976 10.7735 15.0404 9.61005 15.0404 8.60256C15.0404 7.1389 14.5647 5.92122 13.6133 4.94952C12.6619 3.97783 11.4576 3.49198 10.0003 3.49198C8.54306 3.49198 7.33874 3.97783 6.38735 4.94952C5.43596 5.92122 4.96027 7.1389 4.96027 8.60256C4.96027 9.61005 5.40311 10.7735 6.28879 12.093C7.17448 13.4124 8.41166 14.7671 10.0003 16.1571ZM10.0003 17.2003C9.85183 17.2003 9.71374 17.1757 9.58608 17.1266C9.45841 17.0774 9.32887 17.001 9.19745 16.8974C8.79683 16.5555 8.29497 16.0889 7.69187 15.4976C7.08877 14.9063 6.50143 14.2423 5.92985 13.5056C5.35827 12.769 4.87322 11.9797 4.47472 11.1378C4.07621 10.2959 3.87695 9.45085 3.87695 8.60256C3.87695 6.90173 4.44693 5.44554 5.58689 4.234C6.72684 3.02246 8.19798 2.41669 10.0003 2.41669C11.7888 2.41669 13.2565 3.02246 14.4033 4.234C15.5503 5.44554 16.1237 6.90173 16.1237 8.60256C16.1237 9.45085 15.921 10.2981 15.5155 11.1443C15.1101 11.9904 14.6264 12.7831 14.0644 13.5225C13.5024 14.2618 12.9199 14.9223 12.3168 15.504C11.7137 16.0857 11.2118 16.5475 10.8112 16.8894C10.6817 16.993 10.5519 17.0708 10.4218 17.1226C10.2918 17.1744 10.1512 17.2003 10.0003 17.2003ZM10.0017 9.88781C10.3747 9.88781 10.691 9.75754 10.9506 9.49698C11.2103 9.23642 11.3401 8.91965 11.3401 8.54667C11.3401 8.17368 11.2098 7.85738 10.9492 7.59777C10.6887 7.33816 10.3719 7.20835 9.99891 7.20835C9.62593 7.20835 9.30963 7.33863 9.05002 7.59919C8.7904 7.85974 8.6606 8.17651 8.6606 8.5495C8.6606 8.92249 8.79088 9.23878 9.05143 9.4984C9.31199 9.75801 9.62876 9.88781 10.0017 9.88781Z" fill="#1C1B1F"/>
</g>
</g>
</svg>
