<svg width="20" height="20" viewBox="0 0 20 20" fill="none" xmlns="http://www.w3.org/2000/svg">
<mask id="mask0_305_45573" style="mask-type:alpha" maskUnits="userSpaceOnUse" x="0" y="0" width="20" height="20">
<rect width="20" height="20" fill="#D9D9D9"/>
</mask>
<g mask="url(#mask0_305_45573)">
<path d="M10.0045 16.5833C9.85217 16.5833 9.72313 16.5314 9.61737 16.4276C9.5116 16.3238 9.45872 16.1951 9.45872 16.0416V8.37816L7.43945 10.3766C7.31873 10.4973 7.18973 10.5577 7.05245 10.5577C6.91517 10.5577 6.78617 10.4973 6.66545 10.3766C6.54472 10.2559 6.48569 10.129 6.48837 9.996C6.49104 9.86298 6.54908 9.73977 6.66249 9.62637L9.53564 6.75323C9.60529 6.68911 9.67888 6.64104 9.75641 6.609C9.83394 6.57694 9.917 6.56091 10.0056 6.56091C10.0942 6.56091 10.1769 6.57694 10.2537 6.609C10.3305 6.64104 10.401 6.68911 10.4651 6.75323L13.3189 9.607C13.4367 9.72477 13.4956 9.8523 13.4956 9.98958C13.4956 10.1269 13.4352 10.2559 13.3145 10.3766C13.1937 10.4973 13.0669 10.5598 12.9339 10.5641C12.8009 10.5684 12.6767 10.5128 12.5613 10.3974L10.542 8.37816V16.0416C10.542 16.1951 10.4905 16.3238 10.3875 16.4276C10.2844 16.5314 10.1568 16.5833 10.0045 16.5833Z" fill="#1C1B1F"/>
<path d="M7.584 5L7.512 2.736L6.896 4.896H6.104L5.488 2.768L5.412 5H4.68L4.856 2.128H5.964L6.512 4.104L7.056 2.128H8.148L8.324 5H7.584ZM10.8939 5L10.7259 4.404H9.72591L9.55791 5H8.77391L9.72591 2.128H10.7499L11.7019 5H10.8939ZM10.2259 2.644L9.89391 3.812H10.5579L10.2259 2.644ZM13.8887 5L13.3887 4.012L12.8847 5H12.0087L12.8807 3.556L12.0487 2.128H12.9367L13.4167 3.132L13.8967 2.128H14.7607L13.9247 3.552L14.8007 5H13.8887Z" fill="black"/>
</g>
</svg>
