<svg width="20" height="20" viewBox="0 0 20 20" fill="none" xmlns="http://www.w3.org/2000/svg">
<mask id="mask0_1499_223006" style="mask-type:alpha" maskUnits="userSpaceOnUse" x="0" y="0" width="20" height="20">
<rect width="20" height="20" fill="#D9D9D9"/>
</mask>
<g mask="url(#mask0_1499_223006)">
<path d="M6.66669 17.2628H3.4648C3.2586 17.2628 3.08927 17.1944 2.9568 17.0577C2.82431 16.9209 2.76769 16.7494 2.78692 16.5432C2.91939 14.7537 3.49738 13.2786 4.52088 12.1178C5.54438 10.957 6.94021 10.1966 8.70836 9.83658V7.3446C8.14105 7.2666 7.54998 7.14454 6.93513 6.97841C6.32028 6.81227 5.74283 6.58204 5.20278 6.2877C4.66271 5.99337 4.19235 5.62398 3.79171 5.17953C3.39108 4.7351 3.1117 4.19718 2.95359 3.56576C2.89803 3.35636 2.9413 3.16592 3.0834 2.99445C3.22549 2.82298 3.40123 2.73724 3.61063 2.73724H16.3894C16.5988 2.73724 16.7745 2.82432 16.9166 2.99847C17.0587 3.17261 17.102 3.36438 17.0464 3.57379C16.883 4.20519 16.6009 4.74311 16.2003 5.18756C15.7996 5.632 15.3306 6.00139 14.7932 6.29572C14.2558 6.59005 13.6797 6.81895 13.0649 6.98241C12.45 7.14587 11.859 7.2666 11.2917 7.3446V9.83658C13.0598 10.1966 14.4556 10.957 15.4791 12.1178C16.5026 13.2786 17.0806 14.7537 17.2131 16.5432C17.2323 16.7494 17.1757 16.9209 17.0432 17.0577C16.9107 17.1944 16.7414 17.2628 16.5352 17.2628H13.3333C13.1837 17.2628 13.0561 17.2099 12.9503 17.1041C12.8445 16.9984 12.7917 16.8707 12.7917 16.7211C12.7917 16.5716 12.8445 16.4439 12.9503 16.3381C13.0561 16.2324 13.1837 16.1795 13.3333 16.1795H16.1154C15.9188 14.5983 15.266 13.3074 14.157 12.3069C13.0481 11.3064 11.6624 10.8061 10 10.8061C8.33762 10.8061 6.95541 11.3064 5.85338 12.3069C4.75135 13.3074 4.09511 14.5983 3.88465 16.1795H6.66669C6.81626 16.1795 6.94394 16.2324 7.04971 16.3381C7.15548 16.4439 7.20836 16.5716 7.20836 16.7211C7.20836 16.8707 7.15548 16.9984 7.04971 17.1041C6.94394 17.2099 6.81626 17.2628 6.66669 17.2628ZM10 6.29974C11.5096 6.29974 12.7329 6.0639 13.6699 5.5922C14.6069 5.12051 15.3093 4.52996 15.7772 3.82056H4.22278C4.71314 4.54385 5.42119 5.13787 6.34694 5.60262C7.27268 6.06737 8.49037 6.29974 10 6.29974ZM10 17.2628C9.62287 17.2628 9.31331 17.1418 9.07134 16.8998C8.82935 16.6578 8.70836 16.3483 8.70836 15.9711C8.70836 15.781 8.7364 15.6111 8.79249 15.4615C8.84858 15.3119 8.94501 15.1784 9.08176 15.0609C9.18003 14.9626 9.3296 14.8429 9.53046 14.7019C9.73131 14.5609 9.99626 14.4263 10.3253 14.2981L11.8461 13.6731C11.9882 13.6036 12.1164 13.6226 12.2308 13.73C12.3451 13.8373 12.3675 13.9621 12.298 14.1042L11.5897 15.7836C11.4615 16.0849 11.3373 16.3234 11.2171 16.4992C11.097 16.6749 10.9947 16.805 10.9103 16.8894C10.7927 17.0261 10.6592 17.1226 10.5096 17.1786C10.36 17.2347 10.1902 17.2628 10 17.2628Z" fill="#1C1B1F"/>
</g>
</svg>
