<svg width="20" height="20" viewBox="0 0 20 20" fill="none" xmlns="http://www.w3.org/2000/svg">
<g id="demography">
<mask id="mask0_486_50986" style="mask-type:alpha" maskUnits="userSpaceOnUse" x="0" y="0" width="20" height="20">
<rect id="Bounding box" width="20" height="20" fill="#D9D9D9"/>
</mask>
<g mask="url(#mask0_486_50986)">
<path id="demography_2" d="M14.9974 15.0481C15.414 15.0481 15.7682 14.9023 16.0599 14.6106C16.3515 14.3189 16.4974 13.9648 16.4974 13.5481C16.4974 13.1314 16.3515 12.7773 16.0599 12.4856C15.7682 12.1939 15.414 12.0481 14.9974 12.0481C14.5807 12.0481 14.2265 12.1939 13.9349 12.4856C13.6432 12.7773 13.4974 13.1314 13.4974 13.5481C13.4974 13.9648 13.6432 14.3189 13.9349 14.6106C14.2265 14.9023 14.5807 15.0481 14.9974 15.0481ZM15.0022 18.0481C15.5268 18.0481 16.0147 17.9161 16.4661 17.6523C16.9175 17.3884 17.2821 17.0342 17.5599 16.5898C17.1849 16.3259 16.7778 16.1279 16.3387 15.996C15.8995 15.8641 15.4516 15.7981 14.9949 15.7981C14.5382 15.7981 14.0911 15.8641 13.6536 15.996C13.2161 16.1279 12.8099 16.3259 12.4349 16.5898C12.7127 17.0342 13.0788 17.3884 13.5335 17.6523C13.9881 17.9161 14.4777 18.0481 15.0022 18.0481ZM4.75381 16.5833C4.38538 16.5833 4.06999 16.4521 3.80762 16.1898C3.54525 15.9274 3.41406 15.612 3.41406 15.2436V4.75644C3.41406 4.38801 3.54525 4.07261 3.80762 3.81025C4.06999 3.54788 4.38538 3.41669 4.75381 3.41669H15.2409C15.6094 3.41669 15.9248 3.54788 16.1871 3.81025C16.4495 4.07261 16.5807 4.38801 16.5807 4.75644V9.0545C16.5807 9.20797 16.5292 9.33662 16.4261 9.44044C16.3231 9.54426 16.1954 9.59617 16.0431 9.59617C15.8908 9.59617 15.7618 9.54426 15.656 9.44044C15.5503 9.33662 15.4974 9.20797 15.4974 9.0545V4.75644C15.4974 4.69233 15.4707 4.63356 15.4172 4.58013C15.3638 4.52671 15.305 4.5 15.2409 4.5H4.75381C4.6897 4.5 4.63093 4.52671 4.5775 4.58013C4.52408 4.63356 4.49737 4.69233 4.49737 4.75644V15.2436C4.49737 15.3077 4.52408 15.3664 4.5775 15.4199C4.63093 15.4733 4.6897 15.5 4.75381 15.5H9.05188C9.20535 15.5 9.33399 15.5515 9.43781 15.6545C9.54163 15.7576 9.59354 15.8852 9.59354 16.0375C9.59354 16.1898 9.54163 16.3189 9.43781 16.4246C9.33399 16.5304 9.20535 16.5833 9.05188 16.5833H4.75381ZM4.49737 15.5V4.5V9.63783V9.59617V15.5ZM6.20573 13.1497C6.20573 13.302 6.25764 13.4311 6.36146 13.5368C6.46526 13.6426 6.5939 13.6955 6.74738 13.6955H9.19933C9.35279 13.6955 9.48143 13.644 9.58525 13.5409C9.68907 13.4379 9.74098 13.3102 9.74098 13.1579C9.74098 13.0056 9.68907 12.8766 9.58525 12.7708C9.48143 12.6651 9.35279 12.6122 9.19933 12.6122H6.74738C6.5939 12.6122 6.46526 12.6637 6.36146 12.7667C6.25764 12.8698 6.20573 12.9974 6.20573 13.1497ZM6.20573 9.9959C6.20573 10.1482 6.25764 10.2772 6.36146 10.383C6.46526 10.4888 6.5939 10.5416 6.74738 10.5416H11.8644C12.0179 10.5416 12.1465 10.4901 12.2503 10.3871C12.3542 10.2841 12.4061 10.1564 12.4061 10.0041C12.4061 9.8518 12.3542 9.72276 12.2503 9.617C12.1465 9.51124 12.0179 9.45835 11.8644 9.45835H6.74738C6.5939 9.45835 6.46526 9.50987 6.36146 9.6129C6.25764 9.71592 6.20573 9.84359 6.20573 9.9959ZM6.20573 6.84206C6.20573 6.99437 6.25764 7.1234 6.36146 7.22917C6.46526 7.33493 6.5939 7.38781 6.74738 7.38781H13.2474C13.4008 7.38781 13.5295 7.3363 13.6333 7.23327C13.7371 7.13024 13.789 7.00258 13.789 6.85027C13.789 6.69797 13.7371 6.56893 13.6333 6.46317C13.5295 6.35739 13.4008 6.3045 13.2474 6.3045H6.74738C6.5939 6.3045 6.46526 6.35602 6.36146 6.45906C6.25764 6.56209 6.20573 6.68976 6.20573 6.84206ZM14.9927 18.6314C13.9969 18.6314 13.1515 18.2823 12.4565 17.5842C11.7615 16.8861 11.4141 16.0392 11.4141 15.0434C11.4141 14.0476 11.7631 13.2022 12.4613 12.5072C13.1594 11.8123 14.0063 11.4648 15.0021 11.4648C15.9979 11.4648 16.8432 11.8138 17.5382 12.5119C18.2332 13.2101 18.5807 14.057 18.5807 15.0528C18.5807 16.0486 18.2316 16.8939 17.5335 17.5889C16.8354 18.2839 15.9884 18.6314 14.9927 18.6314Z" fill="#1C1B1F"/>
</g>
</g>
</svg>
