<svg width="20" height="20" viewBox="0 0 20 20" fill="none" xmlns="http://www.w3.org/2000/svg">
<path d="M6.96533 17.998C5.89933 15.779 6.46733 14.508 7.28633 13.31C8.18333 11.998 8.41533 10.7 8.41533 10.7C8.41533 10.7 9.12133 11.617 8.83833 13.052C10.0843 11.665 10.3203 9.454 10.1313 8.607C12.9483 10.576 14.1523 14.839 12.5303 17.999C21.1613 13.116 14.6773 5.809 13.5483 4.986C13.9243 5.809 13.9963 7.202 13.2353 7.879C11.9483 3 8.76733 2 8.76733 2C9.14333 4.516 7.40333 7.268 5.72533 9.324C5.66633 8.321 5.60333 7.628 5.07633 6.668C4.95833 8.491 3.56533 9.977 3.18733 11.803C2.67633 14.276 3.57033 16.087 6.96433 18L6.96533 17.998Z" fill="black"/>
<path d="M17.3033 2.90381L2.22168 17.9854" stroke="black" stroke-linecap="round" stroke-linejoin="round"/>
<path d="M16.5962 2.19678L1.51457 17.2784" stroke="#2B2B2B" stroke-linecap="round" stroke-linejoin="round"/>
</svg>
