<svg width="20" height="20" viewBox="0 0 20 20" fill="none" xmlns="http://www.w3.org/2000/svg">
<mask id="mask0_1499_222938" style="mask-type:alpha" maskUnits="userSpaceOnUse" x="0" y="0" width="20" height="20">
<rect width="20" height="20" fill="#D9D9D9"/>
</mask>
<g mask="url(#mask0_1499_222938)">
<path d="M4.95835 11.75C4.80488 11.75 4.67624 11.6985 4.57242 11.5955C4.4686 11.4924 4.41669 11.3648 4.41669 11.2125C4.41669 11.0602 4.4686 10.9311 4.57242 10.8254C4.67624 10.7196 4.80488 10.6667 4.95835 10.6667H9.87504C10.0285 10.6667 10.1572 10.7182 10.261 10.8213C10.3648 10.9243 10.4167 11.0519 10.4167 11.2042C10.4167 11.3566 10.3648 11.4856 10.261 11.5914C10.1572 11.6971 10.0285 11.75 9.87504 11.75H4.95835ZM4.95835 8.625C4.80488 8.625 4.67624 8.57349 4.57242 8.47046C4.4686 8.36743 4.41669 8.23976 4.41669 8.08746C4.41669 7.93515 4.4686 7.80612 4.57242 7.70035C4.67624 7.59458 4.80488 7.54169 4.95835 7.54169H12.875C13.0285 7.54169 13.1572 7.59321 13.261 7.69625C13.3648 7.79928 13.4167 7.92694 13.4167 8.07925C13.4167 8.23156 13.3648 8.36059 13.261 8.46635C13.1572 8.57212 13.0285 8.625 12.875 8.625H4.95835ZM4.95835 5.5C4.80488 5.5 4.67624 5.44849 4.57242 5.34546C4.4686 5.24243 4.41669 5.11476 4.41669 4.96246C4.41669 4.81015 4.4686 4.68112 4.57242 4.57535C4.67624 4.46958 4.80488 4.41669 4.95835 4.41669H12.875C13.0285 4.41669 13.1572 4.46821 13.261 4.57125C13.3648 4.67428 13.4167 4.80194 13.4167 4.95425C13.4167 5.10656 13.3648 5.23559 13.261 5.34135C13.1572 5.44712 13.0285 5.5 12.875 5.5H4.95835ZM11.0962 14.9134V13.8532C11.0962 13.7611 11.1143 13.676 11.1506 13.5979C11.187 13.5198 11.2372 13.4487 11.3013 13.3846L15.391 9.31571C15.4705 9.23414 15.5555 9.17715 15.646 9.14475C15.7366 9.11236 15.8264 9.09617 15.9154 9.09617C16.0125 9.09617 16.1067 9.11379 16.198 9.14904C16.2893 9.18431 16.3724 9.23719 16.4471 9.30769L17.3637 10.2532C17.4339 10.3326 17.488 10.4179 17.5261 10.5091C17.5643 10.6003 17.5833 10.6906 17.5833 10.7802C17.5833 10.8698 17.5658 10.9609 17.5307 11.0533C17.4956 11.1458 17.44 11.2311 17.3637 11.3093L13.2949 15.3782C13.2307 15.4423 13.1596 15.4925 13.0816 15.5288C13.0035 15.5651 12.9184 15.5833 12.8263 15.5833H11.766C11.5762 15.5833 11.4171 15.5191 11.2887 15.3907C11.1604 15.2623 11.0962 15.1032 11.0962 14.9134ZM11.8397 14.8397H12.7772L15.3574 12.2676L14.891 11.7884L14.4407 11.3141L11.8397 13.9022V14.8397ZM14.891 11.7884L14.4407 11.3141L15.3574 12.2676L14.891 11.7884Z" fill="#1C1B1F"/>
</g>
</svg>
