<svg width="16" height="16" viewBox="0 0 16 16" fill="none" xmlns="http://www.w3.org/2000/svg">
<path d="M2.27249 13.907V14.639C2.27249 14.7972 2.21981 14.9301 2.11446 15.0375C2.0091 15.1449 1.87855 15.1986 1.72282 15.1986H1.33501C1.17927 15.1986 1.04872 15.1456 0.94336 15.0395C0.838013 14.9334 0.785339 14.8019 0.785339 14.645V13.5015C0.785339 13.3106 0.8497 13.1499 0.978422 13.0194C1.10716 12.8889 1.26667 12.8237 1.45696 12.8237H14.5461C14.7364 12.8237 14.8954 12.8883 15.0231 13.0174C15.1509 13.1466 15.2147 13.3066 15.2147 13.4975V14.641C15.2147 14.7979 15.162 14.9301 15.0567 15.0375C14.9513 15.1449 14.8208 15.1986 14.665 15.1986H14.2772C14.1215 15.1986 13.991 15.1451 13.8856 15.038C13.7802 14.9308 13.7276 14.7981 13.7276 14.6397V13.907H8.74359V14.639C8.74359 14.7972 8.69092 14.9301 8.58557 15.0375C8.48022 15.1449 8.34967 15.1986 8.19392 15.1986H7.80613C7.65038 15.1986 7.51983 15.1451 7.41449 15.038C7.30914 14.9308 7.25646 14.7981 7.25646 14.6397V13.907H2.27249ZM3.59461 10.8237C3.4048 10.8237 3.24571 10.7595 3.11732 10.6311C2.98893 10.5027 2.92474 10.3436 2.92474 10.1538V1.32696C2.92474 1.13717 2.98893 0.978076 3.11732 0.849687C3.24571 0.721298 3.4048 0.657104 3.59461 0.657104H12.4054C12.5953 0.657104 12.7543 0.721298 12.8827 0.849687C13.0111 0.978076 13.0753 1.13717 13.0753 1.32696V10.3397C13.0753 10.4769 13.0305 10.5918 12.9408 10.6846C12.8511 10.7773 12.74 10.8237 12.6074 10.8237H3.59461ZM4.00805 9.7404H11.992V1.7404H4.00805V9.7404ZM9.95838 4.5641C10.1118 4.5641 10.2405 4.51259 10.3443 4.40956C10.4481 4.30653 10.5 4.17887 10.5 4.02656C10.5 3.87426 10.4481 3.74522 10.3443 3.63946C10.2405 3.53369 10.1118 3.48081 9.95838 3.48081H6.04167C5.88821 3.48081 5.75958 3.53233 5.65576 3.63535C5.55194 3.73838 5.50003 3.86605 5.50003 4.01835C5.50003 4.17066 5.55194 4.29969 5.65576 4.40546C5.75958 4.51122 5.88821 4.5641 6.04167 4.5641H9.95838Z" fill="#1C1B1F"/>
</svg>
