<svg width="20" height="20" viewBox="0 0 20 20" fill="none" xmlns="http://www.w3.org/2000/svg">
<path d="M13.5 14C14.5 14 15 12.6046 15 11.5C15 10.3954 14.5 9 13.5 9" stroke="black"/>
<path d="M17.5 11C18.5 11 19 9.60457 19 8.5C19 7.39543 18.5 6 17.5 6" stroke="black"/>
<path d="M13.5 9C12.5 9 12 10.3954 12 11.5C12 12.6046 12.5 14 13.5 14" stroke="black"/>
<path d="M17.5 6C16.5 6 16 7.39543 16 8.5C16 9.60457 16.5 11 17.5 11" stroke="black"/>
<path d="M6 8.5C6 7.39543 6.5 6 7.5 6" stroke="black"/>
<path d="M3.5 9C2.5 9 2 10.3954 2 11.5C2 12.6046 2.5 14 3.5 14" stroke="black"/>
<path d="M13.5 9H3.5" stroke="black"/>
<path d="M17.5 6H7.5" stroke="black"/>
<path d="M13.5 14H3.5" stroke="black"/>
<path d="M17.5 11H14.5" stroke="black"/>
</svg>
