<svg width="20" height="20" viewBox="0 0 20 20" fill="none" xmlns="http://www.w3.org/2000/svg">
<path fill-rule="evenodd" clip-rule="evenodd" d="M4.8699 15.7147C4.21946 15.7147 3.6672 15.4872 3.21315 15.0323C2.75909 14.5773 2.53207 14.0249 2.53207 13.375H1.95836C1.76855 13.375 1.60945 13.3108 1.48107 13.1824C1.35268 13.054 1.28848 12.8949 1.28848 12.7051V5.33975C1.28848 4.96464 1.418 4.64757 1.67702 4.38854C1.93605 4.12951 2.25311 4 2.62821 4H12.4679C12.8364 4 13.1518 4.13119 13.4141 4.39356C13.6765 4.65592 13.8077 4.97132 13.8077 5.33975V6.83975H15.3285C15.5421 6.83975 15.7445 6.88963 15.9356 6.98938C16.1268 7.08914 16.2914 7.22622 16.4295 7.40063L18.5817 10.4487C18.618 10.5115 18.6487 10.573 18.6739 10.6333C18.699 10.6935 18.7115 10.7588 18.7115 10.8291V12.7051C18.7115 12.8949 18.6473 13.054 18.5189 13.1824C18.3906 13.3108 18.2315 13.375 18.0417 13.375H17.3718C17.3718 14.0249 17.1441 14.5773 16.6888 15.0323C16.2335 15.4872 15.6806 15.7147 15.0302 15.7147C14.3797 15.7147 13.8275 15.4872 13.3734 15.0323C12.9194 14.5773 12.6923 14.0249 12.6923 13.375H7.21152C7.21152 14.0267 6.98386 14.5795 6.52855 15.0336C6.07324 15.4877 5.52036 15.7147 4.8699 15.7147ZM13.8077 10.7917H17.5L15.5208 8.02721C15.4941 7.99517 15.4634 7.96979 15.4287 7.95108C15.3939 7.93239 15.3552 7.92304 15.3125 7.92304H13.8077V10.7917ZM8.00003 6.08325H12V11.5833H8.00003V6.08325ZM2.64645 9.26774C2.45118 9.07248 2.45118 8.75589 2.64645 8.56063L4.06066 7.14642C4.25592 6.95116 4.5725 6.95116 4.76777 7.14642C4.96303 7.34168 4.96303 7.65826 4.76777 7.85352L4.12129 8.5L7 8.5C7.27614 8.5 7.5 8.72386 7.5 9C7.5 9.27614 7.27614 9.5 7 9.5L4.29292 9.5L4.76777 9.97484C4.96303 10.1701 4.96303 10.4867 4.76777 10.682C4.5725 10.8772 4.25592 10.8772 4.06066 10.682L2.64645 9.26774Z" fill="#1C1B1F"/>
</svg>
