<svg width="20" height="20" viewBox="0 0 20 20" fill="none" xmlns="http://www.w3.org/2000/svg">
<g id="swords">
<mask id="mask0_180_79780" style="mask-type:alpha" maskUnits="userSpaceOnUse" x="0" y="0" width="20" height="20">
<rect id="Bounding box" width="20" height="20" fill="#D9D9D9"/>
</mask>
<g mask="url(#mask0_180_79780)">
<path id="swords_2" d="M15.4548 17.2484L12.9612 14.7468L11.1904 16.4968L10.6583 15.9647C10.3987 15.7051 10.2689 15.391 10.2689 15.0224C10.2689 14.6538 10.3987 14.3397 10.6583 14.0801L14.1439 10.5946C14.4035 10.3349 14.7176 10.2051 15.0862 10.2051C15.4548 10.2051 15.7689 10.3349 16.0285 10.5946L16.5606 11.1266L14.8106 12.8974L17.3122 15.3702C17.4489 15.5069 17.5173 15.6653 17.5173 15.8453C17.5173 16.0254 17.4489 16.1838 17.3122 16.3205L16.4051 17.2484C16.2684 17.3851 16.11 17.4535 15.9299 17.4535C15.7499 17.4535 15.5916 17.3851 15.4548 17.2484ZM17.5846 4.80288L8.8378 13.5577L9.34422 14.0721C9.60384 14.3317 9.73366 14.6458 9.73366 15.0144C9.73366 15.383 9.60384 15.6971 9.34422 15.9567L8.8122 16.4888L7.0622 14.7388L4.56859 17.2404C4.43184 17.3771 4.27346 17.4455 4.09345 17.4455C3.91342 17.4455 3.75503 17.3771 3.61828 17.2404L2.71124 16.3333C2.57449 16.1966 2.50611 16.0382 2.50611 15.8582C2.50611 15.6781 2.57449 15.5198 2.71124 15.383L5.19201 12.8894L3.44201 11.1186L3.95322 10.6074C4.21283 10.3478 4.52693 10.2145 4.89553 10.2075C5.26411 10.2006 5.57821 10.3269 5.83782 10.5865L6.40195 11.1426L15.1776 2.35419H17.5846V4.80288ZM6.60226 8.9535L2.41797 4.76121V2.35419H4.86666L9.02209 6.51765L6.60226 8.9535Z" fill="#1C1B1F"/>
</g>
</g>
</svg>
