<svg width="16" height="15" viewBox="0 0 16 15" fill="none" xmlns="http://www.w3.org/2000/svg">
<path d="M3.03139 12.5833L1.55308 14.0616C1.34205 14.2726 1.09979 14.3204 0.826286 14.205C0.552773 14.0895 0.416016 13.8834 0.416016 13.5865V1.75644C0.416016 1.38133 0.54553 1.06426 0.804557 0.805229C1.06359 0.546201 1.38065 0.416687 1.75577 0.416687H14.2429C14.618 0.416687 14.9351 0.546201 15.1941 0.805229C15.4531 1.06426 15.5826 1.38133 15.5826 1.75644V11.2436C15.5826 11.6187 15.4531 11.9357 15.1941 12.1948C14.9351 12.4538 14.618 12.5833 14.2429 12.5833H3.03139ZM7.24493 9.5096C7.20246 9.71794 7.23878 9.91184 7.35389 10.0913C7.469 10.2708 7.63072 10.3818 7.83906 10.4243C8.04739 10.4667 8.24129 10.4304 8.42077 10.3153C8.60025 10.2002 8.71124 10.0385 8.75372 9.83013C8.7962 9.62179 8.75988 9.42789 8.64477 9.24842C8.52965 9.06894 8.36793 8.95797 8.1596 8.91548C7.95127 8.87299 7.75736 8.90931 7.57789 9.02442C7.3984 9.13954 7.28742 9.30127 7.24493 9.5096ZM7.99522 8.19231C8.14753 8.19231 8.27656 8.14041 8.38233 8.0366C8.48809 7.93278 8.54097 7.80414 8.54097 7.65067V3.20192C8.54097 3.04844 8.48946 2.91981 8.38643 2.816C8.2834 2.71218 8.15574 2.66027 8.00343 2.66027C7.85113 2.66027 7.72209 2.71218 7.61633 2.816C7.51056 2.91981 7.45768 3.04844 7.45768 3.20192V7.65067C7.45768 7.80414 7.5092 7.93278 7.61222 8.0366C7.71525 8.14041 7.84292 8.19231 7.99522 8.19231Z" fill="#1C1B1F"/>
</svg>
