<svg width="16" height="14" viewBox="0 0 16 14" fill="none" xmlns="http://www.w3.org/2000/svg">
<path d="M0.915522 13.5833C0.77548 13.5833 0.654668 13.5526 0.553085 13.4912C0.451501 13.4298 0.372487 13.3489 0.316043 13.2484C0.251057 13.1501 0.222258 13.039 0.229647 12.9151C0.237036 12.7911 0.272349 12.6719 0.335585 12.5575L7.42788 0.775963C7.49111 0.661491 7.57393 0.580484 7.67631 0.532942C7.7787 0.485387 7.88688 0.461609 8.00083 0.461609C8.11479 0.461609 8.22279 0.485387 8.32481 0.532942C8.42684 0.580484 8.50947 0.661491 8.57271 0.775963L15.665 12.5575C15.7282 12.6719 15.7635 12.7911 15.7709 12.9151C15.7783 13.039 15.7495 13.1501 15.6845 13.2484C15.6221 13.3475 15.5416 13.4281 15.443 13.4902C15.3444 13.5523 15.2251 13.5833 15.0851 13.5833H0.915522ZM7.9959 11.3398C8.16176 11.3398 8.30225 11.2837 8.41736 11.1715C8.53247 11.0593 8.59002 10.9203 8.59002 10.7544C8.59002 10.5886 8.53393 10.4481 8.42173 10.333C8.30955 10.2179 8.17054 10.1603 8.00469 10.1603C7.83883 10.1603 7.69834 10.2164 7.58323 10.3286C7.46812 10.4408 7.41056 10.5798 7.41056 10.7456C7.41056 10.9115 7.46666 11.052 7.57886 11.1671C7.69104 11.2822 7.83005 11.3398 7.9959 11.3398ZM7.99619 9.1603C8.14849 9.1603 8.27753 9.10839 8.38329 9.00457C8.48906 8.90075 8.54194 8.77211 8.54194 8.61865V5.70194C8.54194 5.54847 8.49043 5.41983 8.3874 5.31603C8.28437 5.21221 8.1567 5.1603 8.0044 5.1603C7.85209 5.1603 7.72306 5.21221 7.61729 5.31603C7.51153 5.41983 7.45865 5.54847 7.45865 5.70194V8.61865C7.45865 8.77211 7.51016 8.90075 7.61319 9.00457C7.71622 9.10839 7.84388 9.1603 7.99619 9.1603Z" fill="#1C1B1F"/>
</svg>
