<svg width="20" height="20" viewBox="0 0 20 20" fill="none" xmlns="http://www.w3.org/2000/svg">
<g id="contact_support">
<mask id="mask0_486_68403" style="mask-type:alpha" maskUnits="userSpaceOnUse" x="0" y="0" width="20" height="20">
<rect id="Bounding box" width="20" height="20" fill="#D9D9D9"/>
</mask>
<g mask="url(#mask0_486_68403)">
<path id="contact_support_2" d="M10.4942 15.5833H9.99738C8.16437 15.5833 6.60891 14.945 5.33098 13.6683C4.05303 12.3916 3.41406 10.8376 3.41406 9.00644C3.41406 7.17523 4.05331 5.61914 5.33179 4.33817C6.61028 3.05718 8.16641 2.41669 10.0002 2.41669C10.9171 2.41669 11.7738 2.59003 12.5702 2.93673C13.3667 3.28341 14.0609 3.75269 14.6528 4.34456C15.2447 4.93645 15.714 5.63051 16.0606 6.42675C16.4073 7.223 16.5807 8.08075 16.5807 9C16.5807 10.6026 16.0131 12.1009 14.878 13.4952C13.7428 14.8894 12.5428 15.977 11.2778 16.758C11.1849 16.8141 11.0919 16.8414 10.999 16.8401C10.9061 16.8388 10.8147 16.8114 10.725 16.758C10.6352 16.7045 10.5663 16.6391 10.5182 16.5617C10.4702 16.4842 10.4488 16.3851 10.4541 16.2644L10.4942 15.5833ZM11.4974 15.3333C12.6085 14.5 13.5529 13.5313 14.3307 12.4271C15.1085 11.3229 15.4974 10.1806 15.4974 9C15.4974 7.48611 14.9592 6.19097 13.8828 5.11458C12.8064 4.03819 11.5113 3.5 9.99738 3.5C8.48349 3.5 7.18835 4.03819 6.11196 5.11458C5.03557 6.19097 4.49737 7.48611 4.49737 9C4.49737 10.5139 5.03557 11.809 6.11196 12.8854C7.18835 13.9618 8.48349 14.5 9.99738 14.5H11.4974V15.3333ZM10.0227 12.8317C10.2201 12.8317 10.3881 12.762 10.5267 12.6226C10.6653 12.4832 10.7345 12.3148 10.7345 12.1173C10.7345 11.9199 10.6648 11.7519 10.5255 11.6133C10.3861 11.4747 10.2176 11.4055 10.0202 11.4055C9.82269 11.4055 9.65468 11.4752 9.51612 11.6145C9.37757 11.7539 9.30829 11.9224 9.30829 12.1198C9.30829 12.3173 9.37799 12.4853 9.51737 12.6239C9.65676 12.7624 9.82519 12.8317 10.0227 12.8317ZM8.29273 6.82371C8.41741 6.87713 8.53848 6.87417 8.65594 6.81485C8.77341 6.75553 8.87867 6.66767 8.97173 6.55127C9.07749 6.38781 9.22042 6.26602 9.40052 6.1859C9.58063 6.10577 9.78592 6.06571 10.0164 6.06571C10.3718 6.06571 10.6621 6.16223 10.8872 6.35527C11.1124 6.54831 11.225 6.80274 11.225 7.11854C11.225 7.44657 11.1229 7.71529 10.9189 7.92469C10.7148 8.13409 10.5108 8.33856 10.3069 8.53808C10.0332 8.79047 9.84006 9.01897 9.72735 9.22356C9.61465 9.42816 9.55829 9.61699 9.55829 9.79006C9.55829 9.95673 9.60222 10.0991 9.69006 10.2171C9.77791 10.3352 9.89569 10.3942 10.0434 10.3942C10.1653 10.3942 10.2672 10.3542 10.349 10.274C10.4308 10.1939 10.4749 10.0908 10.4813 9.96475C10.4878 9.80236 10.5446 9.64077 10.652 9.47998C10.7594 9.31919 10.9012 9.15065 11.0775 8.97435C11.3104 8.74145 11.5492 8.49315 11.7938 8.22944C12.0385 7.96573 12.1608 7.58744 12.1608 7.09456C12.1608 6.51717 11.9632 6.04777 11.5679 5.68635C11.1726 5.32495 10.6806 5.14425 10.0919 5.14425C9.65149 5.14425 9.26174 5.23399 8.92267 5.41348C8.58358 5.59296 8.34651 5.78998 8.21144 6.00452C8.11148 6.15108 8.06603 6.3109 8.0751 6.48398C8.08419 6.65705 8.15673 6.77029 8.29273 6.82371Z" fill="#1C1B1F"/>
</g>
</g>
</svg>
