<svg width="17" height="14" viewBox="0 0 17 14" fill="none" xmlns="http://www.w3.org/2000/svg">
<path d="M1.41503 13.5833C1.27499 13.5833 1.15418 13.5526 1.0526 13.4912C0.951013 13.4298 0.871999 13.3488 0.815555 13.2484C0.750568 13.1501 0.72177 13.039 0.729159 12.915C0.736548 12.7911 0.77186 12.6719 0.835096 12.5574L7.92739 0.775932C7.99062 0.66146 8.07344 0.580454 8.17583 0.532912C8.27821 0.485356 8.38639 0.461578 8.50035 0.461578C8.61431 0.461578 8.7223 0.485356 8.82433 0.532912C8.92635 0.580454 9.00899 0.66146 9.07222 0.775932L16.1645 12.5574C16.2277 12.6719 16.2631 12.7911 16.2705 12.915C16.2778 13.039 16.249 13.1501 16.1841 13.2484C16.1216 13.3475 16.0411 13.428 15.9425 13.4901C15.8439 13.5523 15.7246 13.5833 15.5846 13.5833H1.41503ZM8.49541 11.3397C8.66127 11.3397 8.80176 11.2836 8.91687 11.1714C9.03198 11.0593 9.08953 10.9202 9.08953 10.7544C9.08953 10.5885 9.03344 10.448 8.92124 10.3329C8.80906 10.2178 8.67005 10.1603 8.5042 10.1603C8.33834 10.1603 8.19785 10.2164 8.08274 10.3286C7.96763 10.4407 7.91008 10.5798 7.91008 10.7456C7.91008 10.9115 7.96617 11.0519 8.07837 11.1671C8.19055 11.2822 8.32956 11.3397 8.49541 11.3397ZM8.4957 9.16027C8.64801 9.16027 8.77704 9.10836 8.8828 9.00454C8.98857 8.90072 9.04145 8.77208 9.04145 8.61862V5.70191C9.04145 5.54844 8.98994 5.4198 8.88691 5.316C8.78388 5.21218 8.65621 5.16027 8.50391 5.16027C8.3516 5.16027 8.22257 5.21218 8.11681 5.316C8.01104 5.4198 7.95816 5.54844 7.95816 5.70191V8.61862C7.95816 8.77208 8.00967 8.90072 8.1127 9.00454C8.21573 9.10836 8.3434 9.16027 8.4957 9.16027Z" fill="#1C1B1F"/>
</svg>
