<svg width="20" height="20" viewBox="0 0 20 20" fill="none" xmlns="http://www.w3.org/2000/svg">
<mask id="mask0_1499_222988" style="mask-type:alpha" maskUnits="userSpaceOnUse" x="0" y="0" width="20" height="20">
<rect width="20" height="20" fill="#D9D9D9"/>
</mask>
<g mask="url(#mask0_1499_222988)">
<path d="M10.0014 17.5833C8.96201 17.5833 7.98142 17.386 7.05965 16.9912C6.13785 16.5965 5.33103 16.0534 4.63919 15.3619C3.94733 14.6703 3.40394 13.8639 3.00904 12.9425C2.61414 12.0212 2.41669 11.0408 2.41669 10.0014C2.41669 8.94812 2.61405 7.96406 3.00877 7.04923C3.40349 6.13438 3.94662 5.33104 4.63815 4.63919C5.32969 3.94733 6.13614 3.40394 7.0575 3.00904C7.97885 2.61414 8.95922 2.41669 9.9986 2.41669C11.0519 2.41669 12.0359 2.61405 12.9508 3.00877C13.8656 3.40349 14.669 3.94662 15.3608 4.63815C16.0527 5.32969 16.5961 6.13267 16.991 7.04708C17.3859 7.96149 17.5833 8.94533 17.5833 9.9986C17.5833 11.038 17.386 12.0186 16.9912 12.9404C16.5965 13.8621 16.0534 14.669 15.3619 15.3608C14.6703 16.0527 13.8673 16.5961 12.9529 16.991C12.0385 17.3859 11.0547 17.5833 10.0014 17.5833ZM10 16.5C10.7957 16.5 11.5486 16.3643 12.2587 16.0929C12.9687 15.8216 13.6095 15.4423 14.1811 14.9551L5.04487 5.8189C4.56304 6.39048 4.1851 7.03129 3.91106 7.74133C3.63702 8.45137 3.5 9.20426 3.5 10C3.5 11.8056 4.13194 13.3403 5.39583 14.6042C6.65972 15.8681 8.19444 16.5 10 16.5ZM14.9551 14.1811C15.4423 13.6095 15.8216 12.9687 16.0929 12.2587C16.3643 11.5486 16.5 10.7957 16.5 10C16.5 8.19444 15.8681 6.65972 14.6042 5.39583C13.3403 4.13194 11.8056 3.5 10 3.5C9.20239 3.5 8.44769 3.63435 7.73592 3.90304C7.02414 4.17175 6.38513 4.55236 5.8189 5.04487L14.9551 14.1811Z" fill="#1C1B1F"/>
</g>
</svg>
