<svg width="35" height="24" viewBox="0 0 35 24" fill="none" xmlns="http://www.w3.org/2000/svg">
<path d="M28 11.6667V9.66667L18 8.33333V3H12V5H16V15.4H14.6667L12 9.66667C12.4 9.53333 12.6667 9.13333 12.6667 8.73333C12.6667 8.2 12.2667 7.66667 11.7333 7.66667H9.06667C8.4 7.66667 8 8.06667 8 8.6C8 9.13333 8.4 9.66667 9.06667 9.66667H9.86667L12.5333 15.2667H10.5333C10.1333 12.8667 8 11 5.33333 11C2.4 11 0 13.4 0 16.3333C0 19.2667 2.4 21.6667 5.33333 21.6667C8 21.6667 10.1333 19.8 10.5333 17.4H22C22.2667 14.2 24.8 11.6667 28 11.6667ZM8.53333 17.4C8.13333 18.7333 6.8 19.8 5.33333 19.8C3.46667 19.8 2 18.3333 2 16.4667C2 14.6 3.46667 13.1333 5.33333 13.1333C6.8 13.1333 8.13333 14.0667 8.53333 15.5333H5.33333V17.5333H8.53333M28 13.6667C25.7333 13.6667 24 15.4 24 17.6667C24 19.9333 25.7333 21.6667 28 21.6667C30.2667 21.6667 32 19.9333 32 17.6667C32 15.4 30.2667 13.6667 28 13.6667ZM28 19.6667C26.9333 19.6667 26 18.7333 26 17.6667C26 16.6 26.9333 15.6667 28 15.6667C29.0667 15.6667 30 16.6 30 17.6667C30 18.7333 29.0667 19.6667 28 19.6667Z" fill="black"/>
</svg>
