<svg width="20" height="20" viewBox="0 0 20 20" fill="none" xmlns="http://www.w3.org/2000/svg">
<g id="20px_pedal_bike">
<mask id="mask0_106_29228" style="mask-type:alpha" maskUnits="userSpaceOnUse" x="0" y="0" width="20" height="20">
<rect id="Bounding box" width="20" height="20" fill="#D9D9D9"/>
</mask>
<g mask="url(#mask0_106_29228)">
<path id="pedal_bike" d="M4.00428 15.7917C2.93728 15.7917 2.03798 15.4262 1.3064 14.6953C0.57479 13.9644 0.208984 13.066 0.208984 12C0.208984 10.9722 0.556727 10.0807 1.25221 9.32534C1.9477 8.56999 2.86385 8.19232 4.00065 8.19232C4.90022 8.19232 5.71058 8.50269 6.43173 9.12342C7.15289 9.74414 7.58932 10.5225 7.74103 11.4584H9.18496L7.49907 6.79165H6.75065C6.60135 6.79165 6.47375 6.73868 6.36786 6.63273C6.26196 6.52678 6.20901 6.39911 6.20901 6.24973C6.20901 6.10035 6.26196 5.97277 6.36786 5.86701C6.47375 5.76124 6.60135 5.70836 6.75065 5.70836H9.25065C9.39996 5.70836 9.52755 5.76133 9.63344 5.86728C9.73935 5.97323 9.7923 6.1009 9.7923 6.25028C9.7923 6.39966 9.73935 6.52724 9.63344 6.633C9.52755 6.73877 9.39996 6.79165 9.25065 6.79165H8.65448L9.15288 8.19232H13.8677L12.4798 4.4359C12.4638 4.38782 12.4371 4.35175 12.3997 4.32771C12.3623 4.30367 12.3196 4.29165 12.2715 4.29165H10.7507C10.6013 4.29165 10.4737 4.23868 10.3679 4.13273C10.262 4.02678 10.209 3.89911 10.209 3.74973C10.209 3.60035 10.262 3.47277 10.3679 3.36701C10.4737 3.26124 10.6013 3.20836 10.7507 3.20836H12.2715C12.5984 3.20836 12.8531 3.28019 13.0355 3.42384C13.2179 3.56749 13.3714 3.78626 13.4958 4.08013L15.0022 8.20836H15.834C16.9013 8.20836 17.8244 8.57346 18.6032 9.30367C19.3821 10.0339 19.7715 10.9326 19.7715 12C19.7715 13.0489 19.4013 13.9404 18.6609 14.6745C17.9205 15.4086 17.0338 15.7756 16.0007 15.7756C15.0637 15.7756 14.2384 15.4687 13.5247 14.855C12.811 14.2412 12.3826 13.4701 12.2394 12.5417H7.74103C7.58932 13.5 7.15556 14.2812 6.43976 14.8854C5.72394 15.4896 4.91211 15.7917 4.00428 15.7917ZM6.64811 12.5417V11.4584H4.75065C4.60135 11.4584 4.47375 11.5113 4.36786 11.6173C4.26196 11.7232 4.20901 11.8509 4.20901 12.0003C4.20901 12.1497 4.26196 12.2772 4.36786 12.383C4.47375 12.4888 4.60135 12.5417 4.75065 12.5417H6.64811ZM10.3564 11.4584H12.2603C12.319 11.1069 12.4438 10.7252 12.6345 10.3133C12.8252 9.90144 13.0888 9.55555 13.4254 9.27563H9.55032L10.3564 11.4584ZM14.4462 9.8253L15.1177 11.657C15.17 11.7945 15.2635 11.8924 15.3981 11.9508C15.5327 12.0092 15.6678 12.0144 15.8035 11.9663C15.9392 11.9183 16.0402 11.8258 16.1064 11.6891C16.1726 11.5524 16.1817 11.4161 16.1337 11.2805L15.4413 9.36538L14.4462 9.8253Z" fill="#1C1B1F"/>
</g>
</g>
</svg>
