<svg width="32" height="24" viewBox="0 0 32 24" fill="none" xmlns="http://www.w3.org/2000/svg">
<path fill-rule="evenodd" clip-rule="evenodd" d="M3.76894 22.7738C4.58722 23.5937 5.58247 24.0037 6.75468 24.0037C7.92692 24.0037 8.92331 23.5945 9.74384 22.7762C10.5644 21.9579 10.9747 20.9616 10.9747 19.7871H20.852C20.852 20.9584 21.2612 21.9539 22.0795 22.7738C22.8978 23.5937 23.893 24.0037 25.0652 24.0037C26.2374 24.0037 27.2338 23.5937 28.0544 22.7738C28.8749 21.9539 29.2852 20.9584 29.2852 19.7871H30.6426C31.0272 19.7871 31.3496 19.657 31.6098 19.3968C31.8699 19.1367 32 18.8143 32 18.4297V14.0514C32 13.8931 31.9774 13.746 31.9321 13.6103C31.8869 13.4745 31.819 13.3501 31.7285 13.237L27.9624 8.19432C27.7136 7.85498 27.3968 7.58916 27.0122 7.39686C26.6276 7.20458 26.2204 7.10844 25.7906 7.10844H23.1625V2.70989C23.1625 1.96332 22.8966 1.33153 22.365 0.799893C21.8333 0.268228 21.1942 -0.000107422 20.4476 -0.000107422L2.71478 0C1.95619 0 1.31408 0.26426 0.788449 0.789893C0.262816 1.31553 0 1.95128 0 2.70989V18.4297C0 18.8143 0.130082 19.1367 0.390245 19.3968C0.650408 19.657 0.972796 19.7871 1.35741 19.7871H2.54151C2.54151 20.9584 2.95065 21.9539 3.76894 22.7738ZM29.8917 14.5308H23.1625V9.36107H25.7617C25.8387 9.36107 25.9085 9.37792 25.9711 9.41161C26.0337 9.44532 26.089 9.49105 26.1372 9.5488L29.8917 14.5308ZM14.7251 12.716C14.8851 12.412 14.9651 12.072 14.9651 11.696C14.9651 11.408 14.9171 11.152 14.8211 10.928C14.7331 10.696 14.6051 10.488 14.4371 10.304C14.2771 10.112 14.0811 9.944 13.8491 9.8C13.6251 9.648 13.3811 9.508 13.1171 9.38C13.6451 9.172 14.0571 8.916 14.3531 8.612C14.6491 8.3 14.7971 7.92 14.7971 7.472C14.7971 7.112 14.7211 6.792 14.5691 6.512C14.4171 6.224 14.2011 5.984 13.9211 5.792C13.6491 5.6 13.3211 5.456 12.9371 5.36C12.5611 5.256 12.1451 5.204 11.6891 5.204C11.2411 5.204 10.8291 5.264 10.4531 5.384C10.0771 5.496 9.75311 5.656 9.48111 5.864C9.20911 6.072 8.99311 6.328 8.83311 6.632C8.68111 6.928 8.60511 7.26 8.60511 7.628C8.60511 8.108 8.74111 8.516 9.01311 8.852C9.29311 9.188 9.65711 9.46 10.1051 9.668C8.92911 10.14 8.34111 10.872 8.34111 11.864C8.34111 12.232 8.41711 12.56 8.56911 12.848C8.72911 13.136 8.95311 13.38 9.24111 13.58C9.52911 13.772 9.87311 13.916 10.2731 14.012C10.6811 14.116 11.1331 14.168 11.6291 14.168C12.1251 14.168 12.5771 14.112 12.9851 14C13.3931 13.88 13.7451 13.712 14.0411 13.496C14.3371 13.28 14.5651 13.02 14.7251 12.716ZM12.2651 8.576C12.1051 8.656 11.9331 8.728 11.7491 8.792L11.5571 8.72C11.1251 8.544 10.8051 8.364 10.5971 8.18C10.3971 7.996 10.2971 7.784 10.2971 7.544C10.2971 7.256 10.4251 7.02 10.6811 6.836C10.9451 6.652 11.2811 6.56 11.6891 6.56C12.1051 6.56 12.4451 6.648 12.7091 6.824C12.9811 7 13.1171 7.24 13.1171 7.544C13.1171 7.696 13.0811 7.836 13.0091 7.964C12.9371 8.084 12.8371 8.196 12.7091 8.3C12.5811 8.404 12.4331 8.496 12.2651 8.576ZM10.4531 10.868C10.7011 10.62 11.0451 10.408 11.4851 10.232L11.6411 10.292C12.1771 10.5 12.5691 10.708 12.8171 10.916C13.0731 11.124 13.2011 11.384 13.2011 11.696C13.2011 12.016 13.0531 12.272 12.7571 12.464C12.4611 12.656 12.0851 12.752 11.6291 12.752C11.1811 12.752 10.8091 12.66 10.5131 12.476C10.2251 12.284 10.0811 12.008 10.0811 11.648C10.0811 11.368 10.2051 11.108 10.4531 10.868Z" fill="#1C1B1F"/>
</svg>
