<svg width="20" height="20" viewBox="0 0 20 20" fill="none" xmlns="http://www.w3.org/2000/svg">
<g id="20px_airport_shuttle">
<mask id="mask0_106_28132" style="mask-type:alpha" maskUnits="userSpaceOnUse" x="0" y="0" width="20" height="20">
<rect id="Bounding box" width="20" height="20" fill="#D9D9D9"/>
</mask>
<g mask="url(#mask0_106_28132)">
<path id="airport_shuttle" d="M5.65286 15.2467C5.0519 15.2467 4.54109 15.0364 4.12042 14.6157C3.69976 14.1951 3.48942 13.6843 3.48942 13.0833H2.86121C2.49278 13.0833 2.17739 12.9521 1.91503 12.6898C1.65266 12.4274 1.52148 12.112 1.52148 11.7436V6.25971C1.52148 5.88776 1.65266 5.57094 1.91503 5.30925C2.17739 5.04754 2.49278 4.91669 2.86121 4.91669H13.1753C13.3484 4.91669 13.5134 4.94653 13.6703 5.00623C13.8271 5.06592 13.975 5.16463 14.1138 5.30235L18.07 9.1464C18.215 9.28598 18.3195 9.43753 18.3836 9.60106C18.4477 9.76458 18.4797 9.93655 18.4797 10.117V11.7436C18.4797 12.112 18.3486 12.4274 18.0862 12.6898C17.8238 12.9521 17.5084 13.0833 17.14 13.0833H16.64C16.64 13.6843 16.4297 14.1951 16.009 14.6157C15.5883 15.0364 15.0775 15.2467 14.4766 15.2467C13.8756 15.2467 13.3648 15.0364 12.9441 14.6157C12.5235 14.1951 12.3131 13.6843 12.3131 13.0833H7.8163C7.8163 13.6816 7.60596 14.1917 7.1853 14.6137C6.76463 15.0357 6.25382 15.2467 5.65286 15.2467ZM11.1881 8.7404H16.1721L13.4077 6.07212C13.3809 6.05075 13.3529 6.03339 13.3235 6.02004C13.2941 6.00668 13.2634 6 13.2314 6H11.1881V8.7404ZM6.89644 8.7404H10.1048V6H6.89644V8.7404ZM2.60478 8.7404H5.81313V6H2.86121C2.78642 6 2.72498 6.02404 2.6769 6.07212C2.62882 6.12021 2.60478 6.18165 2.60478 6.25644V8.7404ZM5.65053 14.0833C5.92986 14.0833 6.16675 13.9869 6.36119 13.794C6.55564 13.6011 6.65286 13.365 6.65286 13.0856C6.65286 12.8063 6.55642 12.5694 6.36355 12.375C6.17067 12.1805 5.93456 12.0833 5.65521 12.0833C5.37587 12.0833 5.13897 12.1797 4.94453 12.3726C4.75008 12.5655 4.65286 12.8016 4.65286 13.081C4.65286 13.3603 4.7493 13.5972 4.94219 13.7916C5.13507 13.9861 5.37118 14.0833 5.65053 14.0833ZM14.4742 14.0833C14.7536 14.0833 14.9905 13.9869 15.1849 13.794C15.3793 13.6011 15.4766 13.365 15.4766 13.0856C15.4766 12.8063 15.3801 12.5694 15.1873 12.375C14.9944 12.1805 14.7583 12.0833 14.4789 12.0833C14.1996 12.0833 13.9627 12.1797 13.7682 12.3726C13.5738 12.5655 13.4766 12.8016 13.4766 13.081C13.4766 13.3603 13.573 13.5972 13.7659 13.7916C13.9588 13.9861 14.1949 14.0833 14.4742 14.0833Z" fill="#1C1B1F"/>
</g>
</g>
</svg>
