<svg width="32" height="25" viewBox="0 0 32 25" fill="none" xmlns="http://www.w3.org/2000/svg">
<path d="M6.75468 25.0037C5.58247 25.0037 4.58722 24.5937 3.76894 23.7738C2.95065 22.9539 2.54151 21.9584 2.54151 20.7871H1.35741C0.972796 20.7871 0.650408 20.657 0.390245 20.3968C0.130082 20.1367 0 19.8143 0 19.4297V3.70989C0 2.95128 0.262816 2.31553 0.788449 1.78989C1.31408 1.26426 1.95619 1 2.71478 1L20.4476 0.999893C21.1942 0.999893 21.8333 1.26823 22.365 1.79989C22.8966 2.33153 23.1625 2.96332 23.1625 3.70989V8.10844H25.7906C26.2204 8.10844 26.6276 8.20458 27.0122 8.39686C27.3968 8.58916 27.7136 8.85498 27.9624 9.19432L31.7285 14.237C31.819 14.3501 31.8869 14.4745 31.9321 14.6103C31.9774 14.746 32 14.8931 32 15.0514V19.4297C32 19.8143 31.8699 20.1367 31.6098 20.3968C31.3496 20.657 31.0272 20.7871 30.6426 20.7871H29.2852C29.2852 21.9584 28.8749 22.9539 28.0544 23.7738C27.2338 24.5937 26.2374 25.0037 25.0652 25.0037C23.893 25.0037 22.8978 24.5937 22.0795 23.7738C21.2612 22.9539 20.852 21.9584 20.852 20.7871H10.9747C10.9747 21.9616 10.5644 22.9579 9.74384 23.7762C8.92331 24.5945 7.92692 25.0037 6.75468 25.0037Z" fill="#1C1B1F"/>
<path d="M23.6538 8V18H0.000640869" stroke="#C9EFBC"/>
<path d="M6.76496 13.5V6.708L4.44896 8.532V6.696L6.84896 4.884H8.49297V13.5H6.76496ZM11.0061 11.748C11.1181 11.788 11.2661 11.832 11.4501 11.88C11.6341 11.928 11.8261 11.972 12.0261 12.012C12.2341 12.052 12.4421 12.084 12.6501 12.108C12.8661 12.132 13.0581 12.144 13.2261 12.144C13.8421 12.144 14.3021 12.032 14.6061 11.808C14.9101 11.584 15.0621 11.264 15.0621 10.848C15.0621 10.032 14.4501 9.624 13.2261 9.624C13.0901 9.624 12.9341 9.628 12.7581 9.636C12.5821 9.644 12.4021 9.656 12.2181 9.672C12.0421 9.688 11.8701 9.708 11.7021 9.732C11.5341 9.748 11.3901 9.768 11.2701 9.792L11.5581 4.884H16.4781L16.4181 6.396H13.1061L12.9861 8.196C13.0981 8.188 13.2061 8.184 13.3101 8.184C13.4141 8.176 13.5221 8.172 13.6341 8.172C14.1701 8.172 14.6381 8.236 15.0381 8.364C15.4461 8.484 15.7821 8.66 16.0461 8.892C16.3181 9.124 16.5181 9.404 16.6461 9.732C16.7821 10.06 16.8501 10.424 16.8501 10.824C16.8501 11.264 16.7661 11.66 16.5981 12.012C16.4301 12.356 16.1901 12.648 15.8781 12.888C15.5741 13.128 15.2021 13.312 14.7621 13.44C14.3301 13.568 13.8461 13.632 13.3101 13.632C12.9421 13.632 12.5461 13.6 12.1221 13.536C11.7061 13.472 11.3341 13.376 11.0061 13.248V11.748Z" fill="#C9EFBC"/>
</svg>
