<svg width="32" height="24" viewBox="0 0 32 24" fill="none" xmlns="http://www.w3.org/2000/svg">
<circle cx="27.5" cy="21" r="3" fill="#1C1B1F"/>
<circle cx="19" cy="21" r="3" fill="#1C1B1F"/>
<circle cx="5" cy="21" r="3" fill="#1C1B1F"/>
<path d="M27.3717 4H25.5H24C23.4477 4 23 4.44772 23 5V18H16C15.4477 18 15 18.4477 15 19V20C15 20.5523 15.4477 21 16 21H31C31.5523 21 32 20.5523 32 20V10.3504C32 9.9858 31.9004 9.62817 31.7118 9.31613L29.0835 4.96577C28.7213 4.36633 28.072 4 27.3717 4Z" fill="#1C1B1F"/>
<path fill-rule="evenodd" clip-rule="evenodd" d="M22 2V15.9998C22 16.5521 21.5523 16.9998 21 16.9998H14C13.4477 16.9998 13 17.4475 13 17.9998V20C13 20.5523 12.5523 21 12 21H8H1C0.447715 21 0 20.5523 0 20V2C0 0.89543 0.895431 0 2 0H20C21.1046 0 22 0.895431 22 2ZM5.50241 11.572C5.15041 11.516 4.75041 11.42 4.30241 11.284V12.772C4.46241 12.828 4.64241 12.88 4.84241 12.928C5.04241 12.968 5.24641 13.004 5.45441 13.036C5.66241 13.068 5.87041 13.092 6.07841 13.108C6.28641 13.124 6.48241 13.132 6.66641 13.132C7.15441 13.132 7.60241 13.076 8.01041 12.964C8.41841 12.852 8.76641 12.692 9.05441 12.484C9.35041 12.276 9.57841 12.02 9.73841 11.716C9.89841 11.412 9.97841 11.068 9.97841 10.684C9.97841 10.084 9.81441 9.608 9.48641 9.256C9.16641 8.904 8.71841 8.672 8.14241 8.56C8.67041 8.4 9.07441 8.144 9.35441 7.792C9.63441 7.432 9.77441 7 9.77441 6.496C9.77441 6.168 9.71441 5.868 9.59441 5.596C9.48241 5.316 9.30641 5.08 9.06641 4.888C8.82641 4.688 8.52641 4.532 8.16641 4.42C7.81441 4.308 7.39841 4.252 6.91841 4.252C6.74241 4.252 6.54641 4.264 6.33041 4.288C6.11441 4.304 5.89441 4.332 5.67041 4.372C5.44641 4.412 5.22641 4.46 5.01041 4.516C4.80241 4.572 4.61441 4.636 4.44641 4.708V6.172C5.27841 5.868 6.02241 5.716 6.67841 5.716C7.13441 5.716 7.47441 5.812 7.69841 6.004C7.92241 6.188 8.03441 6.436 8.03441 6.748C8.03441 7.116 7.87041 7.4 7.54241 7.6C7.21441 7.792 6.69441 7.896 5.98241 7.912L5.47841 7.924V9.364L6.24641 9.376C6.91041 9.376 7.39841 9.468 7.71041 9.652C8.03041 9.836 8.19041 10.128 8.19041 10.528C8.19041 10.88 8.05441 11.156 7.78241 11.356C7.51841 11.556 7.09041 11.656 6.49841 11.656C6.18641 11.656 5.85441 11.628 5.50241 11.572ZM11.9486 11.5V13H17.6486V11.488H13.9286L15.7046 9.712C16.0566 9.392 16.3486 9.096 16.5806 8.824C16.8206 8.544 17.0086 8.28 17.1446 8.032C17.2886 7.784 17.3886 7.544 17.4446 7.312C17.5086 7.072 17.5406 6.824 17.5406 6.568C17.5406 6.232 17.4806 5.924 17.3606 5.644C17.2486 5.356 17.0806 5.112 16.8566 4.912C16.6406 4.704 16.3646 4.544 16.0286 4.432C15.7006 4.312 15.3206 4.252 14.8886 4.252C14.4326 4.252 13.9566 4.324 13.4606 4.468C12.9726 4.604 12.5246 4.788 12.1166 5.02V6.532C13.1326 6.012 13.9606 5.752 14.6006 5.752C14.9926 5.752 15.2846 5.848 15.4766 6.04C15.6766 6.224 15.7766 6.48 15.7766 6.808C15.7766 6.952 15.7566 7.096 15.7166 7.24C15.6766 7.376 15.6086 7.52 15.5126 7.672C15.4246 7.816 15.3086 7.976 15.1646 8.152C15.0206 8.32 14.8446 8.512 14.6366 8.728L11.9486 11.5Z" fill="#1C1B1F"/>
</svg>
