<svg width="20" height="20" viewBox="0 0 20 20" fill="none" xmlns="http://www.w3.org/2000/svg">
<g id="20px_local_shipping">
<mask id="mask0_106_29231" style="mask-type:alpha" maskUnits="userSpaceOnUse" x="0" y="0" width="20" height="20">
<rect id="Bounding box" width="20" height="20" fill="#D9D9D9"/>
</mask>
<g mask="url(#mask0_106_29231)">
<path id="local_shipping" d="M4.87048 15.6314C4.22003 15.6314 3.66778 15.4039 3.21373 14.949C2.75967 14.494 2.53265 13.9416 2.53265 13.2916H1.95894C1.76913 13.2916 1.61003 13.2275 1.48165 13.0991C1.35326 12.9707 1.28906 12.8116 1.28906 12.6218V5.25644C1.28906 4.88133 1.41858 4.56426 1.6776 4.30523C1.93663 4.0462 2.25369 3.91669 2.62879 3.91669H12.4685C12.837 3.91669 13.1523 4.04788 13.4147 4.31025C13.6771 4.57261 13.8083 4.88801 13.8083 5.25644V6.75644H15.3291C15.5427 6.75644 15.7451 6.80631 15.9362 6.90606C16.1273 7.00583 16.2919 7.14291 16.43 7.31731L18.5823 10.3654C18.6186 10.4282 18.6493 10.4897 18.6744 10.55C18.6995 10.6102 18.7121 10.6755 18.7121 10.7458V12.6218C18.7121 12.8116 18.6479 12.9707 18.5195 13.0991C18.3911 13.2275 18.232 13.2916 18.0422 13.2916H17.3724C17.3724 13.9416 17.1447 14.494 16.6894 14.949C16.2341 15.4039 15.6812 15.6314 15.0308 15.6314C14.3803 15.6314 13.8281 15.4039 13.374 14.949C12.9199 14.494 12.6929 13.9416 12.6929 13.2916H7.2121C7.2121 13.9434 6.98444 14.4962 6.52913 14.9503C6.07382 15.4043 5.52094 15.6314 4.87048 15.6314ZM4.87238 14.5481C5.22515 14.5481 5.52275 14.4269 5.76517 14.1845C6.00758 13.942 6.12879 13.6444 6.12879 13.2916C6.12879 12.9389 6.00758 12.6413 5.76517 12.3989C5.52275 12.1564 5.22515 12.0352 4.87238 12.0352C4.51958 12.0352 4.22198 12.1564 3.97956 12.3989C3.73715 12.6413 3.61594 12.9389 3.61594 13.2916C3.61594 13.6444 3.73715 13.942 3.97956 14.1845C4.22198 14.4269 4.51958 14.5481 4.87238 14.5481ZM15.0326 14.5481C15.3854 14.5481 15.683 14.4269 15.9254 14.1845C16.1679 13.942 16.2891 13.6444 16.2891 13.2916C16.2891 12.9389 16.1679 12.6413 15.9254 12.3989C15.683 12.1564 15.3854 12.0352 15.0326 12.0352C14.6799 12.0352 14.3823 12.1564 14.1398 12.3989C13.8974 12.6413 13.7762 12.9389 13.7762 13.2916C13.7762 13.6444 13.8974 13.942 14.1398 14.1845C14.3823 14.4269 14.6799 14.5481 15.0326 14.5481ZM13.8083 10.7084H17.5006L15.5214 7.9439C15.4947 7.91185 15.464 7.88648 15.4293 7.86777C15.3945 7.84908 15.3558 7.83973 15.3131 7.83973H13.8083V10.7084Z" fill="#1C1B1F"/>
</g>
</g>
</svg>
