<svg width="32" height="24" viewBox="0 0 32 24" fill="none" xmlns="http://www.w3.org/2000/svg">
<path d="M6.75468 24.0037C5.58247 24.0037 4.58722 23.5937 3.76894 22.7738C2.95065 21.9539 2.54151 20.9584 2.54151 19.7871H1.35741C0.972796 19.7871 0.650408 19.657 0.390245 19.3968C0.130082 19.1367 0 18.8143 0 18.4297V2.70989C0 1.95128 0.262816 1.31553 0.788449 0.789893C1.31408 0.26426 1.95619 0 2.71478 0L20.4476 -0.000107422C21.1942 -0.000107422 21.8333 0.268228 22.365 0.799893C22.8966 1.33153 23.1625 1.96332 23.1625 2.70989V7.10844H25.7906C26.2204 7.10844 26.6276 7.20458 27.0122 7.39686C27.3968 7.58916 27.7136 7.85498 27.9624 8.19432L31.7285 13.237C31.819 13.3501 31.8869 13.4745 31.9321 13.6103C31.9774 13.746 32 13.8931 32 14.0514V18.4297C32 18.8143 31.8699 19.1367 31.6098 19.3968C31.3496 19.657 31.0272 19.7871 30.6426 19.7871H29.2852C29.2852 20.9584 28.8749 21.9539 28.0544 22.7738C27.2338 23.5937 26.2374 24.0037 25.0652 24.0037C23.893 24.0037 22.8978 23.5937 22.0795 22.7738C21.2612 21.9539 20.852 20.9584 20.852 19.7871H10.9747C10.9747 20.9616 10.5644 21.9579 9.74384 22.7762C8.92331 23.5945 7.92692 24.0037 6.75468 24.0037ZM23.1625 14.5308H29.8917L26.1372 9.5488C26.089 9.49105 26.0337 9.44532 25.9711 9.41161C25.9085 9.37792 25.8387 9.36107 25.7617 9.36107H23.1625V14.5308Z" fill="#1C1B1F"/>
<path d="M14.9651 11.696C14.9651 12.072 14.8851 12.412 14.7251 12.716C14.5651 13.02 14.3371 13.28 14.0411 13.496C13.7451 13.712 13.3931 13.88 12.9851 14C12.5771 14.112 12.1251 14.168 11.6291 14.168C11.1331 14.168 10.6811 14.116 10.2731 14.012C9.87311 13.916 9.52911 13.772 9.24111 13.58C8.95311 13.38 8.72911 13.136 8.56911 12.848C8.41711 12.56 8.34111 12.232 8.34111 11.864C8.34111 10.872 8.92911 10.14 10.1051 9.668C9.65711 9.46 9.29311 9.188 9.01311 8.852C8.74111 8.516 8.60511 8.108 8.60511 7.628C8.60511 7.26 8.68111 6.928 8.83311 6.632C8.99311 6.328 9.20911 6.072 9.48111 5.864C9.75311 5.656 10.0771 5.496 10.4531 5.384C10.8291 5.264 11.2411 5.204 11.6891 5.204C12.1451 5.204 12.5611 5.256 12.9371 5.36C13.3211 5.456 13.6491 5.6 13.9211 5.792C14.2011 5.984 14.4171 6.224 14.5691 6.512C14.7211 6.792 14.7971 7.112 14.7971 7.472C14.7971 7.92 14.6491 8.3 14.3531 8.612C14.0571 8.916 13.6451 9.172 13.1171 9.38C13.3811 9.508 13.6251 9.648 13.8491 9.8C14.0811 9.944 14.2771 10.112 14.4371 10.304C14.6051 10.488 14.7331 10.696 14.8211 10.928C14.9171 11.152 14.9651 11.408 14.9651 11.696ZM11.7491 8.792C11.9331 8.728 12.1051 8.656 12.2651 8.576C12.4331 8.496 12.5811 8.404 12.7091 8.3C12.8371 8.196 12.9371 8.084 13.0091 7.964C13.0811 7.836 13.1171 7.696 13.1171 7.544C13.1171 7.24 12.9811 7 12.7091 6.824C12.4451 6.648 12.1051 6.56 11.6891 6.56C11.2811 6.56 10.9451 6.652 10.6811 6.836C10.4251 7.02 10.2971 7.256 10.2971 7.544C10.2971 7.784 10.3971 7.996 10.5971 8.18C10.8051 8.364 11.1251 8.544 11.5571 8.72L11.7491 8.792ZM11.4851 10.232C11.0451 10.408 10.7011 10.62 10.4531 10.868C10.2051 11.108 10.0811 11.368 10.0811 11.648C10.0811 12.008 10.2251 12.284 10.5131 12.476C10.8091 12.66 11.1811 12.752 11.6291 12.752C12.0851 12.752 12.4611 12.656 12.7571 12.464C13.0531 12.272 13.2011 12.016 13.2011 11.696C13.2011 11.384 13.0731 11.124 12.8171 10.916C12.5691 10.708 12.1771 10.5 11.6411 10.292L11.4851 10.232Z" fill="#C9EFBC"/>
</svg>
