<svg width="32" height="25" viewBox="0 0 32 25" fill="none" xmlns="http://www.w3.org/2000/svg">
<path fill-rule="evenodd" clip-rule="evenodd" d="M6.75468 24.5036C5.58247 24.5036 4.58722 24.0937 3.76894 23.2738C2.95065 22.4539 2.54151 21.4583 2.54151 20.2871H1.35741C0.972796 20.2871 0.650408 20.157 0.390245 19.8968C0.130082 19.6367 0 19.3143 0 18.9297V3.20988C0 2.45126 0.262816 1.81551 0.788449 1.28988C1.31408 0.764245 1.95619 0.499985 2.71478 0.499985L20.4476 0.499878C21.1942 0.499878 21.8333 0.768213 22.365 1.29988C22.8966 1.83152 23.1625 2.4633 23.1625 3.20988V7.49999H23.1538V17H0.00063324V18H23.6538H24.1538V17.5V7.60842H25.7906C26.2204 7.60842 26.6276 7.70456 27.0122 7.89684C27.3968 8.08915 27.7136 8.35497 27.9624 8.6943L31.7285 13.737C31.819 13.8501 31.8869 13.9745 31.9321 14.1103C31.9774 14.246 32 14.3931 32 14.5514V18.9297C32 19.3143 31.8699 19.6367 31.6098 19.8968C31.3496 20.157 31.0272 20.2871 30.6426 20.2871H29.2852C29.2852 21.4583 28.8749 22.4539 28.0544 23.2738C27.2338 24.0937 26.2374 24.5036 25.0652 24.5036C23.893 24.5036 22.8978 24.0937 22.0795 23.2738C21.2612 22.4539 20.852 21.4583 20.852 20.2871H10.9747C10.9747 21.4615 10.5644 22.4579 9.74384 23.2762C8.92331 24.0945 7.92692 24.5036 6.75468 24.5036ZM6.76497 6.20798V13H8.49296V4.38398H6.84897L4.44897 6.19598V8.03198L6.76497 6.20798ZM11.4501 11.38C11.2661 11.332 11.1181 11.288 11.0061 11.248V12.748C11.3341 12.876 11.7061 12.972 12.1221 13.036C12.5461 13.1 12.9421 13.132 13.3101 13.132C13.8461 13.132 14.3301 13.068 14.7621 12.94C15.2021 12.812 15.5741 12.628 15.8781 12.388C16.1901 12.148 16.4301 11.856 16.5981 11.512C16.7661 11.16 16.8501 10.764 16.8501 10.324C16.8501 9.92399 16.7821 9.55999 16.6461 9.23199C16.5181 8.90399 16.3181 8.62399 16.0461 8.39199C15.7821 8.15999 15.4461 7.98398 15.0381 7.86399C14.6381 7.73598 14.1701 7.67198 13.6341 7.67198C13.5221 7.67198 13.4141 7.67598 13.3101 7.68399C13.2061 7.68399 13.0981 7.68798 12.9861 7.69598L13.1061 5.89599H16.4181L16.4781 4.38398H11.5581L11.2701 9.29199C11.3901 9.26799 11.5341 9.24798 11.7021 9.23199C11.8701 9.20798 12.0421 9.18799 12.2181 9.17199C12.4021 9.15598 12.5821 9.14398 12.7581 9.13599C12.9341 9.12799 13.0901 9.12399 13.2261 9.12399C14.4501 9.12399 15.0621 9.53199 15.0621 10.348C15.0621 10.764 14.9101 11.084 14.6061 11.308C14.3021 11.532 13.8421 11.644 13.2261 11.644C13.0581 11.644 12.8661 11.632 12.6501 11.608C12.4421 11.584 12.2341 11.552 12.0261 11.512C11.8261 11.472 11.6341 11.428 11.4501 11.38Z" fill="#1C1B1F"/>
</svg>
