<svg width="35" height="24" viewBox="0 0 35 24" fill="none" xmlns="http://www.w3.org/2000/svg">
<circle cx="28" cy="20" r="3" fill="#1C1B1F"/>
<circle cx="18.5" cy="20" r="3" fill="#1C1B1F"/>
<circle cx="4.5" cy="20" r="3" fill="#1C1B1F"/>
<path d="M28.5 4.50024H25.5H23.5V17.5002H15V19.5002H31.5V10.5002L28.5 4.50024Z" fill="#1C1B1F" stroke="#1C1B1F" stroke-linejoin="round"/>
<path d="M21.5 15.5003V1.5H0.5V19.5L7.5 19.5003H12V16.5003C12 15.948 12.4477 15.5003 13 15.5003H21.5Z" fill="#1C1B1F" stroke="#1C1B1F" stroke-linejoin="round"/>
<path d="M3.80241 11.284C4.25041 11.42 4.65041 11.516 5.00241 11.572C5.35441 11.628 5.68641 11.656 5.99841 11.656C6.59041 11.656 7.01841 11.556 7.28241 11.356C7.55441 11.156 7.69041 10.88 7.69041 10.528C7.69041 10.128 7.53041 9.836 7.21041 9.652C6.89841 9.468 6.41041 9.376 5.74641 9.376L4.97841 9.364V7.924L5.48241 7.912C6.19441 7.896 6.71441 7.792 7.04241 7.6C7.37041 7.4 7.53441 7.116 7.53441 6.748C7.53441 6.436 7.42241 6.188 7.19841 6.004C6.97441 5.812 6.63441 5.716 6.17841 5.716C5.52241 5.716 4.77841 5.868 3.94641 6.172V4.708C4.11441 4.636 4.30241 4.572 4.51041 4.516C4.72641 4.46 4.94641 4.412 5.17041 4.372C5.39441 4.332 5.61441 4.304 5.83041 4.288C6.04641 4.264 6.24241 4.252 6.41841 4.252C6.89841 4.252 7.31441 4.308 7.66641 4.42C8.02641 4.532 8.32641 4.688 8.56641 4.888C8.80641 5.08 8.98241 5.316 9.09441 5.596C9.21441 5.868 9.27441 6.168 9.27441 6.496C9.27441 7 9.13441 7.432 8.85441 7.792C8.57441 8.144 8.17041 8.4 7.64241 8.56C8.21841 8.672 8.66641 8.904 8.98641 9.256C9.31441 9.608 9.47841 10.084 9.47841 10.684C9.47841 11.068 9.39841 11.412 9.23841 11.716C9.07841 12.02 8.85041 12.276 8.55441 12.484C8.26641 12.692 7.91841 12.852 7.51041 12.964C7.10241 13.076 6.65441 13.132 6.16641 13.132C5.98241 13.132 5.78641 13.124 5.57841 13.108C5.37041 13.092 5.16241 13.068 4.95441 13.036C4.74641 13.004 4.54241 12.968 4.34241 12.928C4.14241 12.88 3.96241 12.828 3.80241 12.772V11.284ZM11.4486 13V11.5L14.1366 8.728C14.3446 8.512 14.5206 8.32 14.6646 8.152C14.8086 7.976 14.9246 7.816 15.0126 7.672C15.1086 7.52 15.1766 7.376 15.2166 7.24C15.2566 7.096 15.2766 6.952 15.2766 6.808C15.2766 6.48 15.1766 6.224 14.9766 6.04C14.7846 5.848 14.4926 5.752 14.1006 5.752C13.4606 5.752 12.6326 6.012 11.6166 6.532V5.02C12.0246 4.788 12.4726 4.604 12.9606 4.468C13.4566 4.324 13.9326 4.252 14.3886 4.252C14.8206 4.252 15.2006 4.312 15.5286 4.432C15.8646 4.544 16.1406 4.704 16.3566 4.912C16.5806 5.112 16.7486 5.356 16.8606 5.644C16.9806 5.924 17.0406 6.232 17.0406 6.568C17.0406 6.824 17.0086 7.072 16.9446 7.312C16.8886 7.544 16.7886 7.784 16.6446 8.032C16.5086 8.28 16.3206 8.544 16.0806 8.824C15.8486 9.096 15.5566 9.392 15.2046 9.712L13.4286 11.488H17.1486V13H11.4486Z" fill="#C9EFBC"/>
</svg>
