<svg width="32" height="24" viewBox="0 0 32 24" fill="none" xmlns="http://www.w3.org/2000/svg">
<path fill-rule="evenodd" clip-rule="evenodd" d="M23.255 3.20007L27.3 9.59998H20V3.20007H23.255ZM28.8 19.2H29.6C30.925 19.2 32 18.125 32 16.8V11.385C32 10.63 31.735 9.90002 31.25 9.32495L25.705 1.14014C25.095 0.415039 24.2 0 23.255 0H3.6C1.61 0 0 1.61011 0 3.6001V16.8C0 18.125 1.075 19.2 2.4 19.2H3.2C3.2 21.85 5.35 24 8 24C10.65 24 12.8 21.85 12.8 19.2H19.2C19.2 21.85 21.35 24 24 24C26.65 24 28.8 21.85 28.8 19.2ZM10.6272 12.308V14H12.3312V12.308H13.3272V10.88H12.3312V5.38403H10.1232L6.71519 10.964V12.308H10.6272ZM8.31119 10.88L10.6272 6.96802V10.88H8.31119Z" fill="#1C1B1F"/>
</svg>
