<svg width="32" height="24" viewBox="0 0 32 24" fill="none" xmlns="http://www.w3.org/2000/svg">
<path d="M27.3 9.6L23.255 3.2001H20V9.6H27.3ZM29.6 19.2H28.8C28.8 21.85 26.65 24 24 24C21.35 24 19.2 21.85 19.2 19.2H12.8C12.8 21.85 10.65 24 8 24C5.35 24 3.2 21.85 3.2 19.2H2.4C1.075 19.2 0 18.125 0 16.8V3.6001C0 1.6101 1.61 0 3.6 0H23.255C24.2 0 25.095 0.415098 25.705 1.1401L31.25 9.325C31.735 9.9 32 10.63 32 11.385V16.8C32 18.125 30.925 19.2 29.6 19.2Z" fill="#1C1B1F"/>
<path d="M10.6272 14V12.308H6.71519V10.964L10.1232 5.384H12.3312V10.88H13.3272V12.308H12.3312V14H10.6272ZM10.6272 6.968L8.31119 10.88H10.6272V6.968Z" fill="#C9EFBC"/>
</svg>
