<svg width="20" height="20" viewBox="0 0 20 20" fill="none" xmlns="http://www.w3.org/2000/svg">
<mask id="mask0_2770_7803" style="mask-type:alpha" maskUnits="userSpaceOnUse" x="0" y="0" width="20" height="20">
<rect width="20" height="20" fill="#D9D9D9"/>
</mask>
<g mask="url(#mask0_2770_7803)">
<path d="M9.10417 14.8126L12.9167 10.0001H9.8125L10.3542 5.3959L6.75 11.0001H9.79167L9.10417 14.8126ZM8.48082 12.0834H5.90388C5.66564 12.0834 5.49177 11.9803 5.38225 11.7741C5.27275 11.5679 5.27836 11.3638 5.39909 11.1619L10.2756 3.43121C10.36 3.27417 10.4824 3.17375 10.6426 3.12994C10.8029 3.08614 10.9631 3.09095 11.1234 3.14438C11.2836 3.1978 11.4108 3.29555 11.5048 3.43763C11.5988 3.57973 11.6346 3.73785 11.6121 3.91198L11.0272 8.91676H13.8653C14.1207 8.91676 14.3023 9.02894 14.4102 9.2533C14.5181 9.47766 14.4962 9.6908 14.3445 9.89271L8.99521 16.7276C8.88838 16.8568 8.7583 16.9426 8.60498 16.9848C8.45168 17.027 8.29917 17.0102 8.14746 16.9343C7.99575 16.8585 7.88118 16.7495 7.80373 16.6074C7.72627 16.4653 7.7057 16.3141 7.74202 16.1539L8.48082 12.0834Z" fill="#1C1B1F"/>
</g>
</svg>
