<svg width="14" height="16" viewBox="0 0 14 16" fill="none" xmlns="http://www.w3.org/2000/svg">
<path d="M6.99837 14.1571C8.58704 12.7671 9.82422 11.4124 10.7099 10.093C11.5956 8.77351 12.0384 7.61005 12.0384 6.60256C12.0384 5.1389 11.5627 3.92122 10.6114 2.94952C9.65996 1.97783 8.45564 1.49198 6.99837 1.49198C5.54111 1.49198 4.33678 1.97783 3.3854 2.94952C2.43401 3.92122 1.95831 5.1389 1.95831 6.60256C1.95831 7.61005 2.40115 8.77351 3.28683 10.093C4.17253 11.4124 5.40971 12.7671 6.99837 14.1571ZM6.99837 15.2003C6.84987 15.2003 6.71179 15.1757 6.58413 15.1266C6.45646 15.0774 6.32692 15.001 6.1955 14.8974C5.79488 14.5555 5.29301 14.0889 4.68992 13.4976C4.08682 12.9063 3.49948 12.2423 2.9279 11.5056C2.35631 10.769 1.87127 9.97971 1.47277 9.13783C1.07426 8.29594 0.875 7.45085 0.875 6.60256C0.875 4.90173 1.44498 3.44554 2.58494 2.234C3.72488 1.02246 5.19603 0.416687 6.99837 0.416687C8.78683 0.416687 10.2545 1.02246 11.4014 2.234C12.5483 3.44554 13.1217 4.90173 13.1217 6.60256C13.1217 7.45085 12.919 8.29808 12.5136 9.14425C12.1081 9.9904 11.6244 10.7831 11.0624 11.5225C10.5005 12.2618 9.91795 12.9223 9.31485 13.504C8.71176 14.0857 8.20989 14.5475 7.80925 14.8894C7.67976 14.993 7.54998 15.0708 7.4199 15.1226C7.2898 15.1744 7.14929 15.2003 6.99837 15.2003ZM6.99979 7.88781C7.37278 7.88781 7.68908 7.75754 7.94869 7.49698C8.2083 7.23642 8.3381 6.91965 8.3381 6.54667C8.3381 6.17368 8.20783 5.85738 7.94727 5.59777C7.68672 5.33816 7.36995 5.20835 6.99696 5.20835C6.62397 5.20835 6.30767 5.33863 6.04806 5.59919C5.78845 5.85974 5.65865 6.17651 5.65865 6.5495C5.65865 6.92249 5.78892 7.23878 6.04948 7.4984C6.31004 7.75801 6.62681 7.88781 6.99979 7.88781Z" fill="#1C1B1F"/>
</svg>
