<svg width="18" height="14" viewBox="0 0 18 14" fill="none" xmlns="http://www.w3.org/2000/svg">
<path d="M1.09364 13.5833C0.904163 13.5833 0.744191 13.5191 0.613719 13.3907C0.483219 13.2623 0.417969 13.1032 0.417969 12.9134V1.08656C0.417969 0.896771 0.482122 0.73768 0.610427 0.609291C0.738733 0.480888 0.897719 0.416687 1.08739 0.416687H9.44072C9.63039 0.416687 9.79046 0.480888 9.92093 0.609291C10.0514 0.73768 10.1166 0.896771 10.1166 1.08656V12.9134C10.1166 13.1032 10.0524 13.2623 9.92405 13.3907C9.79566 13.5191 9.63657 13.5833 9.44678 13.5833H6.28978V10.1154H4.24486V13.5833H1.09364ZM1.5013 12.5H3.16157V9.03206H7.37309V12.5H9.03337V1.5H1.5013V12.5ZM3.16157 7.37179H4.4372V6.09617H3.16157V7.37179ZM3.16157 4.4359H4.4372V3.16027H3.16157V4.4359ZM6.09747 7.37179H7.37309V6.09617H6.09747V7.37179ZM6.09747 4.4359H7.37309V3.16027H6.09747V4.4359ZM12.0975 7.0041C12.0975 6.8518 12.1494 6.72276 12.2532 6.617C12.357 6.51124 12.4856 6.45835 12.6391 6.45835H15.519L14.4997 5.43908C14.3843 5.32371 14.3288 5.19338 14.333 5.04808C14.3373 4.90278 14.3963 4.77465 14.5101 4.66369C14.6271 4.54923 14.756 4.492 14.8969 4.492C15.0377 4.492 15.1649 4.5497 15.2785 4.66508L17.1279 6.53527C17.2646 6.66697 17.333 6.82061 17.333 6.99621C17.333 7.17181 17.2646 7.32798 17.1279 7.46473L15.2577 9.33492C15.1436 9.44853 15.0184 9.50097 14.8821 9.49225C14.7457 9.48351 14.6226 9.42412 14.5125 9.31408C14.3918 9.19871 14.3341 9.06838 14.3394 8.92308C14.3448 8.77778 14.4052 8.65011 14.5205 8.54008L15.519 7.54165H12.6391C12.4856 7.54165 12.357 7.49013 12.2532 7.3871C12.1494 7.28408 12.0975 7.15641 12.0975 7.0041Z" fill="#1C1B1F"/>
</svg>
