<svg width="24" height="24" viewBox="0 0 24 24" fill="none" xmlns="http://www.w3.org/2000/svg">
<g id="collapse_content">
<mask id="mask0_180_79888" style="mask-type:alpha" maskUnits="userSpaceOnUse" x="0" y="0" width="24" height="24">
<rect id="Bounding box" width="24" height="24" fill="#D9D9D9"/>
</mask>
<g mask="url(#mask0_180_79888)">
<path id="collapse_content_2" d="M9.5 14.5H6.25C6.0375 14.5 5.85938 14.4281 5.71563 14.2843C5.57188 14.1404 5.5 13.9622 5.5 13.7497C5.5 13.5371 5.57188 13.359 5.71563 13.2154C5.85938 13.0718 6.0375 13 6.25 13H10.0961C10.3522 13 10.5669 13.0866 10.7401 13.2599C10.9134 13.4331 11 13.6478 11 13.9039V17.75C11 17.9625 10.9281 18.1406 10.7842 18.2844C10.6405 18.4281 10.4622 18.5 10.2497 18.5C10.0371 18.5 9.85898 18.4281 9.7154 18.2844C9.5718 18.1406 9.5 17.9625 9.5 17.75V14.5ZM14.5 9.50003H17.75C17.9625 9.50003 18.1406 9.57194 18.2843 9.71576C18.4281 9.85957 18.5 10.0378 18.5 10.2504C18.5 10.463 18.4281 10.641 18.2843 10.7846C18.1406 10.9282 17.9625 11 17.75 11H13.9038C13.6477 11 13.4331 10.9134 13.2598 10.7402C13.0866 10.5669 13 10.3523 13 10.0962V6.25003C13 6.03753 13.0719 5.85941 13.2157 5.71566C13.3595 5.57191 13.5377 5.50003 13.7503 5.50003C13.9629 5.50003 14.141 5.57191 14.2845 5.71566C14.4282 5.85941 14.5 6.03753 14.5 6.25003V9.50003Z" fill="#1C1B1F"/>
</g>
</g>
</svg>
