<svg width="20" height="20" viewBox="0 0 20 20" fill="none" xmlns="http://www.w3.org/2000/svg">
<g id="box">
<mask id="mask0_184_99072" style="mask-type:alpha" maskUnits="userSpaceOnUse" x="0" y="0" width="20" height="20">
<rect id="Bounding box" width="20" height="20" fill="#D9D9D9"/>
</mask>
<g mask="url(#mask0_184_99072)">
<path id="box_2" d="M4.50128 6.91987V15.2436C4.50128 15.3184 4.52532 15.3798 4.57341 15.4279C4.62149 15.476 4.68293 15.5 4.75772 15.5H15.2448C15.3196 15.5 15.3811 15.476 15.4292 15.4279C15.4772 15.3798 15.5013 15.3184 15.5013 15.2436V6.91987H12.5846V11.3263C12.5846 11.5818 12.4791 11.7748 12.2681 11.9053C12.0571 12.0357 11.8399 12.0437 11.6164 11.9294L9.99893 11.125L8.38141 11.9294C8.15792 12.0437 7.94148 12.0357 7.73207 11.9053C7.52267 11.7748 7.41797 11.5818 7.41797 11.3263V6.91987H4.50128ZM4.75772 16.5833C4.38795 16.5833 4.07223 16.4525 3.81053 16.1908C3.54882 15.9291 3.41797 15.6133 3.41797 15.2436V6.02567C3.41797 5.84725 3.45176 5.67711 3.51934 5.51525C3.58691 5.3534 3.68827 5.2041 3.82343 5.06735L5.07664 3.7981C5.21339 3.66135 5.35961 3.5636 5.51532 3.50483C5.67102 3.44607 5.83622 3.41669 6.01093 3.41669H13.9756C14.1503 3.41669 14.3169 3.44607 14.4752 3.50483C14.6336 3.5636 14.7812 3.66135 14.9179 3.7981L16.1791 5.08338C16.3143 5.22013 16.4156 5.37076 16.4832 5.53529C16.5508 5.69982 16.5846 5.87129 16.5846 6.04971V15.2436C16.5846 15.6133 16.4537 15.9291 16.192 16.1908C15.9303 16.4525 15.6146 16.5833 15.2448 16.5833H4.75772ZM4.61826 5.83656H15.3763L14.1759 4.58815C14.1492 4.56144 14.1185 4.54007 14.0838 4.52404C14.0491 4.50801 14.013 4.5 13.9756 4.5H6.01895C5.98154 4.5 5.94548 4.50801 5.91076 4.52404C5.87604 4.54007 5.84532 4.56144 5.81859 4.58815L4.61826 5.83656ZM8.50128 6.91987V10.6506L10.0013 9.90065L11.5013 10.6506V6.91987H8.50128Z" fill="#1C1B1F"/>
</g>
</g>
</svg>
