<svg width="14" height="16" viewBox="0 0 14 16" fill="none" xmlns="http://www.w3.org/2000/svg">
<path d="M3.96531 15.998C2.89931 13.779 3.46731 12.508 4.28631 11.31C5.18331 9.998 5.41531 8.7 5.41531 8.7C5.41531 8.7 6.12131 9.617 5.83831 11.052C7.08431 9.665 7.32031 7.454 7.13131 6.607C9.94831 8.576 11.1523 12.839 9.53031 15.999C18.1613 11.116 11.6773 3.809 10.5483 2.986C10.9243 3.809 10.9963 5.202 10.2353 5.879C8.94831 1 5.76731 0 5.76731 0C6.14331 2.516 4.40331 5.268 2.72531 7.324C2.66631 6.321 2.60331 5.628 2.07631 4.668C1.95831 6.491 0.565312 7.977 0.187312 9.803C-0.323688 12.276 0.570312 14.087 3.96431 16L3.96531 15.998Z" fill="#1C1B1F"/>
</svg>
