<svg width="10" height="14" viewBox="0 0 10 14" fill="none" xmlns="http://www.w3.org/2000/svg">
<path d="M4.10418 11.8125L7.91668 7.00001H4.81251L5.35418 2.39584L1.75001 8.00001H4.79168L4.10418 11.8125ZM3.48082 9.08332H0.903885C0.665649 9.08332 0.491774 8.98022 0.38226 8.77403C0.27276 8.56783 0.278371 8.36378 0.399093 8.16186L5.27564 0.431154C5.36004 0.274112 5.48236 0.173688 5.64261 0.129883C5.80288 0.0860773 5.96314 0.0908897 6.12339 0.14432C6.28364 0.197737 6.41077 0.295487 6.50478 0.43757C6.59879 0.579667 6.63459 0.737785 6.61216 0.911924L6.02722 5.91669H8.86534C9.12069 5.91669 9.30232 6.02888 9.41022 6.25324C9.51812 6.4776 9.49622 6.69074 9.34451 6.89265L3.99522 13.7275C3.88839 13.8568 3.75831 13.9425 3.60499 13.9847C3.45168 14.0269 3.29918 14.0101 3.14747 13.9342C2.99576 13.8584 2.88118 13.7494 2.80374 13.6073C2.72628 13.4652 2.70571 13.3141 2.74203 13.1538L3.48082 9.08332Z" fill="#1C1B1F"/>
</svg>
