<svg width="20" height="20" viewBox="0 0 20 20" fill="none" xmlns="http://www.w3.org/2000/svg">
<mask id="mask0_3749_329875" style="mask-type:alpha" maskUnits="userSpaceOnUse" x="0" y="0" width="20" height="20">
<rect width="20" height="20" fill="#D9D9D9"/>
</mask>
<g mask="url(#mask0_3749_329875)">
<path d="M9.99693 12.6794C10.1628 12.6794 10.3032 12.6233 10.4184 12.5112C10.5335 12.399 10.5911 12.26 10.5911 12.0942C10.5911 11.9283 10.535 11.7878 10.4228 11.6727C10.3105 11.5576 10.1715 11.5 10.0057 11.5C9.83984 11.5 9.69936 11.5561 9.58422 11.6683C9.46908 11.7805 9.41151 11.9196 9.41151 12.0854C9.41151 12.2512 9.46762 12.3917 9.57984 12.5069C9.69207 12.6219 9.83109 12.6794 9.99693 12.6794ZM9.99714 10.1762C10.1495 10.1762 10.2785 10.1244 10.3842 10.0206C10.4901 9.91673 10.543 9.78805 10.543 9.63457V6.86228C10.543 6.70881 10.4914 6.58013 10.3884 6.47624C10.2853 6.37249 10.1577 6.32062 10.0055 6.32062C9.85311 6.32062 9.72408 6.37249 9.61839 6.47624C9.51255 6.58013 9.45964 6.70881 9.45964 6.86228V9.63457C9.45964 9.78805 9.51116 9.91673 9.61422 10.0206C9.71727 10.1244 9.84491 10.1762 9.99714 10.1762ZM10.0013 17.4758C9.92866 17.4758 9.85068 17.4724 9.76734 17.4654C9.68401 17.4585 9.61026 17.4411 9.54609 17.4133C7.84429 16.8161 6.48082 15.7601 5.45568 14.2452C4.43054 12.7302 3.91797 11.0721 3.91797 9.27082V5.7052C3.91797 5.42061 3.99512 5.16457 4.14943 4.93707C4.30359 4.70943 4.51116 4.54562 4.77214 4.44562L9.51568 2.63312C9.68026 2.56895 9.84214 2.53687 10.0013 2.53687C10.1605 2.53687 10.3223 2.56895 10.4869 2.63312L15.2305 4.44562C15.4914 4.54562 15.699 4.70943 15.8532 4.93707C16.0075 5.16457 16.0846 5.42061 16.0846 5.7052V9.27082C16.0846 11.0721 15.5721 12.7302 14.5469 14.2452C13.5218 15.7601 12.1583 16.8161 10.4565 17.4133C10.3923 17.4411 10.3186 17.4585 10.2353 17.4654C10.1519 17.4724 10.0739 17.4758 10.0013 17.4758ZM10.0013 16.4375C11.4457 15.9896 12.6402 15.0937 13.5846 13.75C14.5291 12.4062 15.0013 10.9132 15.0013 9.27082V5.69707C15.0013 5.64374 14.9866 5.59568 14.9571 5.55291C14.9278 5.51013 14.8864 5.47805 14.833 5.45666L10.0894 3.64416C10.0628 3.63346 10.0334 3.62812 10.0013 3.62812C9.96922 3.62812 9.93984 3.63346 9.91318 3.64416L5.16964 5.45666C5.11616 5.47805 5.07477 5.51013 5.04547 5.55291C5.01602 5.59568 5.0013 5.64374 5.0013 5.69707V9.27082C5.0013 10.9132 5.47352 12.4062 6.41797 13.75C7.36241 15.0937 8.55686 15.9896 10.0013 16.4375Z" fill="#1C1B1F"/>
</g>
</svg>
