<svg width="20" height="20" viewBox="0 0 20 20" fill="none" xmlns="http://www.w3.org/2000/svg">
<rect x="7.5" y="6.5" width="9" height="5" fill="white" stroke="#1C1B1F"/>
<path d="M17 11.5C17.5676 11.5 17.9468 11.0529 18.1543 10.6378C18.3768 10.1928 18.5 9.61308 18.5 9C18.5 8.38692 18.3768 7.80717 18.1543 7.36218C17.9468 6.9471 17.5676 6.5 17 6.5C16.4324 6.5 16.0532 6.9471 15.8457 7.36218C15.6232 7.80717 15.5 8.38692 15.5 9C15.5 9.61308 15.6232 10.1928 15.8457 10.6378C16.0532 11.0529 16.4324 11.5 17 11.5Z" fill="white" stroke="#1C1B1F"/>
<path d="M7 11.5C7.56756 11.5 7.94678 11.0529 8.15432 10.6378C8.37681 10.1928 8.5 9.61308 8.5 9C8.5 8.38692 8.37681 7.80717 8.15432 7.36218C7.94678 6.9471 7.56756 6.5 7 6.5C6.43244 6.5 6.05322 6.9471 5.84568 7.36218C5.62319 7.80717 5.5 8.38692 5.5 9C5.5 9.61308 5.62319 10.1928 5.84568 10.6378C6.05322 11.0529 6.43244 11.5 7 11.5Z" fill="white" stroke="#1C1B1F"/>
<rect x="7" y="7" width="2" height="4" fill="white"/>
<rect x="3.5" y="9.5" width="9" height="5" fill="white" stroke="#1C1B1F"/>
<path d="M13 14.5C13.5676 14.5 13.9468 14.0529 14.1543 13.6378C14.3768 13.1928 14.5 12.6131 14.5 12C14.5 11.3869 14.3768 10.8072 14.1543 10.3622C13.9468 9.9471 13.5676 9.5 13 9.5C12.4324 9.5 12.0532 9.9471 11.8457 10.3622C11.6232 10.8072 11.5 11.3869 11.5 12C11.5 12.6131 11.6232 13.1928 11.8457 13.6378C12.0532 14.0529 12.4324 14.5 13 14.5Z" fill="white" stroke="#1C1B1F"/>
<path d="M3 14.5C3.56756 14.5 3.94678 14.0529 4.15432 13.6378C4.37681 13.1928 4.5 12.6131 4.5 12C4.5 11.3869 4.37681 10.8072 4.15432 10.3622C3.94678 9.9471 3.56756 9.5 3 9.5C2.43244 9.5 2.05322 9.9471 1.84568 10.3622C1.62319 10.8072 1.5 11.3869 1.5 12C1.5 12.6131 1.62319 13.1928 1.84568 13.6378C2.05322 14.0529 2.43244 14.5 3 14.5Z" fill="white" stroke="#1C1B1F"/>
<rect x="3" y="10" width="2" height="4" fill="white"/>
</svg>
