<svg width="20" height="20" viewBox="0 0 20 20" fill="none" xmlns="http://www.w3.org/2000/svg">
<mask id="mask0_3749_314954" style="mask-type:alpha" maskUnits="userSpaceOnUse" x="0" y="0" width="20" height="20">
<rect width="20" height="20" fill="#D9D9D9"/>
</mask>
<g mask="url(#mask0_3749_314954)">
<path d="M15.4548 17.2484L12.9612 14.7468L11.1904 16.4968L10.6583 15.9648C10.3987 15.7052 10.2689 15.3911 10.2689 15.0225C10.2689 14.6539 10.3987 14.3398 10.6583 14.0802L14.1439 10.5946C14.4035 10.335 14.7176 10.2052 15.0862 10.2052C15.4548 10.2052 15.7689 10.335 16.0285 10.5946L16.5606 11.1266L14.8106 12.8975L17.3122 15.3702C17.4489 15.507 17.5173 15.6654 17.5173 15.8454C17.5173 16.0254 17.4489 16.1838 17.3122 16.3206L16.4051 17.2484C16.2684 17.3852 16.11 17.4536 15.9299 17.4536C15.7499 17.4536 15.5916 17.3852 15.4548 17.2484ZM17.5846 4.80294L8.8378 13.5577L9.34422 14.0722C9.60384 14.3318 9.73366 14.6459 9.73366 15.0145C9.73366 15.3831 9.60384 15.6972 9.34422 15.9568L8.8122 16.4888L7.0622 14.7388L4.56859 17.2404C4.43184 17.3772 4.27346 17.4455 4.09345 17.4455C3.91342 17.4455 3.75503 17.3772 3.61828 17.2404L2.71124 16.3334C2.57449 16.1966 2.50611 16.0382 2.50611 15.8582C2.50611 15.6782 2.57449 15.5198 2.71124 15.3831L5.19201 12.8895L3.44201 11.1186L3.95322 10.6074C4.21283 10.3478 4.52693 10.2145 4.89553 10.2076C5.26411 10.2007 5.57821 10.327 5.83782 10.5866L6.40195 11.1427L15.1776 2.35425H17.5846V4.80294ZM6.60226 8.95356L2.41797 4.76127V2.35425H4.86666L9.02209 6.51771L6.60226 8.95356Z" fill="#1C1B1F"/>
</g>
</svg>
