<svg width="14" height="14" viewBox="0 0 14 14" fill="none" xmlns="http://www.w3.org/2000/svg">
<path d="M11.4755 6.65199L9.94342 5.09684C9.85111 5.00596 9.80495 4.8903 9.80495 4.74984C9.80495 4.60938 9.85111 4.49301 9.94342 4.40071C10.0357 4.30839 10.1521 4.26224 10.2926 4.26224C10.433 4.26224 10.5487 4.30839 10.6396 4.40071L12.969 6.73019C13.0827 6.84386 13.1396 6.98445 13.1396 7.15197C13.1396 7.3195 13.0827 7.46009 12.969 7.57376L10.6396 9.90324C10.5472 9.99555 10.4312 10.0406 10.2915 10.0385C10.1517 10.0364 10.0357 9.98914 9.94342 9.89684C9.85111 9.80453 9.80495 9.68957 9.80495 9.55197C9.80495 9.41437 9.85111 9.29942 9.94342 9.20711L11.4755 7.65196L5.36523 7.65196C5.22357 7.65196 5.10482 7.60402 5.00898 7.50816C4.91315 7.41228 4.86523 7.29348 4.86523 7.15176C4.86523 7.01002 4.91315 6.8913 5.00898 6.79557C5.10482 6.69985 5.22357 6.65199 5.36523 6.65199L11.4755 6.65199ZM1.86522 7.15197C1.86522 8.64086 2.38188 9.90197 3.41522 10.9353C4.44855 11.9686 5.70966 12.4853 7.19855 12.4853C7.5695 12.4853 7.9342 12.4481 8.29267 12.3738C8.65112 12.2994 8.99839 12.1879 9.33445 12.0392C9.47633 11.9785 9.61831 11.9586 9.7604 11.9796C9.9025 12.0007 10.0279 12.0658 10.1365 12.175C10.2368 12.2759 10.2616 12.399 10.2107 12.5443C10.1599 12.6896 10.0588 12.7973 9.90752 12.8673C9.47761 13.0699 9.03772 13.2235 8.58785 13.3282C8.13799 13.4329 7.67489 13.4853 7.19855 13.4853C6.32244 13.4853 5.49911 13.3191 4.72857 12.9866C3.95801 12.6542 3.28773 12.203 2.71773 11.6331C2.14773 11.0632 1.69649 10.3931 1.36399 9.62264C1.03148 8.85223 0.865234 8.02905 0.865234 7.15309C0.865234 6.27713 1.03146 5.45378 1.36392 4.68302C1.69637 3.91226 2.14756 3.2418 2.71748 2.67166C3.28741 2.1015 3.95759 1.65013 4.72803 1.31754C5.49848 0.984951 6.3217 0.818656 7.19768 0.818656C7.67262 0.818656 8.14107 0.870368 8.60303 0.97379C9.065 1.07721 9.51094 1.23362 9.94085 1.44302C10.0853 1.5131 10.1791 1.61865 10.2223 1.75967C10.2654 1.90069 10.2374 2.02078 10.1383 2.11992C10.0349 2.22335 9.91328 2.28809 9.77354 2.31416C9.6338 2.34022 9.49641 2.32505 9.36137 2.26864C9.01487 2.11308 8.65999 1.9992 8.29673 1.92697C7.93347 1.85475 7.56741 1.81864 7.19855 1.81864C5.70966 1.81864 4.44855 2.33531 3.41522 3.36864C2.38188 4.40197 1.86522 5.66308 1.86522 7.15197Z" fill="#2C1503"/>
</svg>
