<svg width="16" height="16" viewBox="0 0 16 16" fill="none" xmlns="http://www.w3.org/2000/svg">
<mask id="mask0_4442_45352" style="mask-type:alpha" maskUnits="userSpaceOnUse" x="0" y="0" width="16" height="16">
<rect width="16" height="16" fill="#D9D9D9"/>
</mask>
<g mask="url(#mask0_4442_45352)">
<path d="M10.138 12.4667C8.89752 12.4667 7.84265 12.032 6.97336 11.1627C6.10408 10.2934 5.66944 9.23857 5.66944 7.99811C5.66944 6.76691 6.10408 5.71498 6.97336 4.84232C7.84265 3.96968 8.89752 3.53336 10.138 3.53336C11.3692 3.53336 12.4211 3.96968 13.2938 4.84232C14.1664 5.71498 14.6027 6.76691 14.6027 7.99811C14.6027 9.23857 14.1664 10.2934 13.2938 11.1627C12.4211 12.032 11.3692 12.4667 10.138 12.4667ZM10.1278 11.6C11.1333 11.6 11.9861 11.2528 12.6861 10.5583C13.3861 9.86389 13.7361 9.0139 13.7361 8.00834C13.7361 7.00278 13.3861 6.15001 12.6861 5.45001C11.9861 4.75001 11.1361 4.40001 10.1361 4.40001C9.12498 4.40001 8.2722 4.75001 7.57776 5.45001C6.88331 6.15001 6.53609 7.00001 6.53609 8.00001C6.53609 9.01112 6.88331 9.86389 7.57776 10.5583C8.2722 11.2528 9.1222 11.6 10.1278 11.6ZM10.5704 7.83562V6.13732C10.5704 6.01415 10.5288 5.91089 10.4455 5.82757C10.3622 5.74424 10.259 5.70257 10.1359 5.70257C10.013 5.70257 9.91013 5.74368 9.82719 5.82591C9.74423 5.90813 9.70276 6.01001 9.70276 6.13156V7.95267C9.70276 8.02168 9.71344 8.0902 9.73481 8.15822C9.75617 8.22624 9.7952 8.2887 9.85187 8.34559L11.2664 9.75147C11.3539 9.84194 11.4556 9.88717 11.5716 9.88717C11.6875 9.88717 11.7898 9.84102 11.8784 9.74872C11.9707 9.66012 12.0168 9.55891 12.0168 9.44509C12.0168 9.33128 11.9717 9.22919 11.8814 9.13882L10.5704 7.83562ZM2.83536 5.83332C2.71299 5.83332 2.60945 5.79211 2.52474 5.70969C2.44002 5.62727 2.39766 5.52513 2.39766 5.40329C2.39766 5.28145 2.43905 5.17822 2.52182 5.09361C2.60459 5.009 2.70716 4.96669 2.82952 4.96669H4.23174C4.3541 4.96669 4.45763 5.0079 4.54236 5.09032C4.62708 5.17274 4.66944 5.27488 4.66944 5.39672C4.66944 5.51857 4.62805 5.62179 4.54527 5.70641C4.46251 5.79102 4.35994 5.83332 4.23757 5.83332H2.83536ZM2.03097 8.43332C1.9082 8.43332 1.80528 8.39211 1.72224 8.30969C1.63918 8.22727 1.59766 8.12513 1.59766 8.00329C1.59766 7.88144 1.63918 7.77822 1.72224 7.69361C1.80528 7.60899 1.9082 7.56669 2.03097 7.56669H4.23612C4.35889 7.56669 4.4618 7.6079 4.54486 7.69032C4.62791 7.77274 4.66944 7.87488 4.66944 7.99672C4.66944 8.11857 4.62791 8.2218 4.54486 8.30641C4.4618 8.39102 4.35889 8.43332 4.23612 8.43332H2.03097ZM2.83536 11.0333C2.71299 11.0333 2.60945 10.9921 2.52474 10.9097C2.44002 10.8273 2.39766 10.7251 2.39766 10.6033C2.39766 10.4814 2.43905 10.3782 2.52182 10.2936C2.60459 10.209 2.70716 10.1667 2.82952 10.1667H4.23174C4.3541 10.1667 4.45763 10.2079 4.54236 10.2903C4.62708 10.3727 4.66944 10.4749 4.66944 10.5967C4.66944 10.7186 4.62805 10.8218 4.54527 10.9064C4.46251 10.991 4.35994 11.0333 4.23757 11.0333H2.83536Z" fill="#1C1B1F"/>
</g>
</svg>
