<svg width="20" height="21" viewBox="0 0 20 21" fill="none" xmlns="http://www.w3.org/2000/svg">
<mask id="mask0_6110_271174" style="mask-type:alpha" maskUnits="userSpaceOnUse" x="0" y="1" width="21" height="21">
<rect x="0.203125" y="1.20227" width="20" height="20" fill="#D9D9D9"/>
</mask>
<g mask="url(#mask0_6110_271174)">
<path d="M9.76919 11.7391L17.407 11.7391C17.5841 11.7391 17.7325 11.6792 17.8523 11.5593C17.9721 11.4395 18.032 11.291 18.032 11.1138C18.032 10.9367 17.9721 10.7883 17.8523 10.6686C17.7325 10.549 17.5841 10.4891 17.407 10.4891H9.76919L11.6843 8.5452C11.7997 8.42981 11.8582 8.28691 11.8598 8.11651C11.8613 7.94611 11.8002 7.79848 11.6763 7.67363C11.5627 7.55918 11.4181 7.50195 11.2425 7.50195C11.0669 7.50195 10.9215 7.55964 10.8061 7.67503L7.90225 10.5869C7.75161 10.7375 7.67629 10.9133 7.67629 11.1141C7.67629 11.315 7.75161 11.4907 7.90225 11.6413L10.8141 14.5532C10.9295 14.6686 11.0724 14.7271 11.2428 14.7287C11.4132 14.7303 11.5608 14.6687 11.6857 14.5438C11.8001 14.4293 11.8574 14.2861 11.8574 14.1141C11.8574 13.9421 11.7997 13.7984 11.6843 13.683L9.76919 11.7391ZM3.62498 11.1141C3.62498 12.9752 4.27081 14.5516 5.56248 15.8433C6.85415 17.1349 8.43054 17.7808 10.2916 17.7808C10.7553 17.7808 11.2112 17.7343 11.6593 17.6414C12.1074 17.5484 12.5414 17.409 12.9615 17.2231C13.1389 17.1472 13.3163 17.1224 13.494 17.1487C13.6716 17.175 13.8283 17.2564 13.9641 17.3929C14.0895 17.519 14.1204 17.6729 14.0569 17.8545C13.9933 18.0361 13.867 18.1707 13.6779 18.2583C13.1405 18.5115 12.5906 18.7036 12.0283 18.8344C11.4659 18.9653 10.8871 19.0308 10.2916 19.0308C9.19651 19.0308 8.16735 18.823 7.20417 18.4074C6.24097 17.9919 5.40313 17.4279 4.69063 16.7156C3.97813 16.0032 3.41406 15.1655 2.99844 14.2024C2.58281 13.2394 2.375 12.2105 2.375 11.1155C2.375 10.0206 2.58279 8.99137 2.99835 8.02793C3.41392 7.06447 3.97791 6.2264 4.69031 5.51372C5.40272 4.80102 6.24044 4.23681 7.2035 3.82107C8.16656 3.40534 9.19558 3.19747 10.2906 3.19747C10.8842 3.19747 11.4698 3.26211 12.0473 3.39138C12.6247 3.52066 13.1821 3.71618 13.7195 3.97793C13.9001 4.06552 14.0173 4.19746 14.0713 4.37374C14.1252 4.55002 14.0902 4.70012 13.9663 4.82405C13.837 4.95333 13.6851 5.03426 13.5104 5.06684C13.3357 5.09943 13.164 5.08046 12.9952 5.00995C12.562 4.8155 12.1184 4.67314 11.6644 4.58286C11.2103 4.49259 10.7527 4.44745 10.2916 4.44745C8.43054 4.44745 6.85415 5.09328 5.56248 6.38495C4.27081 7.67661 3.62498 9.253 3.62498 11.1141Z" fill="#191C1D"/>
</g>
</svg>
