<svg width="13" height="13" viewBox="0 0 13 13" fill="none" xmlns="http://www.w3.org/2000/svg">
<path d="M6.42414 7.37222L12.3177 7.37222C12.4372 7.37222 12.5393 7.32984 12.624 7.24509C12.7087 7.16032 12.751 7.05819 12.751 6.93869C12.751 6.81918 12.7087 6.71712 12.624 6.6325C12.5393 6.54789 12.4372 6.50559 12.3177 6.50559L6.42414 6.50559L8.03954 4.88377C8.13185 4.79146 8.17309 4.68825 8.16326 4.57415C8.15342 4.46005 8.10449 4.35862 8.01646 4.26985C7.92558 4.17829 7.8238 4.1325 7.71112 4.1325C7.59846 4.1325 7.49597 4.17866 7.40366 4.27097L5.13059 6.56712C5.02119 6.67652 4.96649 6.80045 4.96649 6.9389C4.96649 7.07736 5.02119 7.20129 5.13059 7.31069L7.42674 9.60684C7.51904 9.69915 7.61946 9.74039 7.72801 9.73055C7.83655 9.72073 7.93521 9.67143 8.02399 9.58265C8.11556 9.49109 8.16134 9.39039 8.16134 9.28057C8.16134 9.17075 8.11518 9.06968 8.02287 8.97737L6.42414 7.37222ZM1.62544 6.9389C1.62544 8.38335 2.131 9.61113 3.14211 10.6222C4.15322 11.6333 5.38099 12.1389 6.82544 12.1389C7.21861 12.1389 7.60276 12.0962 7.97789 12.0107C8.35301 11.9252 8.71972 11.797 9.07801 11.6261C9.18655 11.5654 9.30353 11.5456 9.42896 11.5666C9.55439 11.5876 9.66032 11.6416 9.74676 11.7286C9.83594 11.8184 9.86345 11.9248 9.82927 12.0479C9.79508 12.1709 9.72457 12.262 9.61774 12.3209C9.18783 12.5457 8.73683 12.716 8.26474 12.8318C7.79265 12.9476 7.31288 13.0056 6.82544 13.0056C5.98266 13.0056 5.19545 12.8477 4.46379 12.5319C3.73212 12.2161 3.08962 11.7816 2.53629 11.2284C1.98296 10.6752 1.54837 10.03 1.23254 9.2929C0.916707 8.55583 0.758789 7.77153 0.758789 6.94002C0.758789 6.0974 0.916684 5.31015 1.23247 4.57829C1.54826 3.84641 1.98278 3.20373 2.53604 2.65025C3.08929 2.09676 3.7317 1.66206 4.46326 1.34614C5.19481 1.03022 5.98192 0.872253 6.82457 0.872253C7.32173 0.872253 7.80685 0.935076 8.27992 1.06072C8.753 1.18637 9.21005 1.365 9.65107 1.59662C9.75106 1.65559 9.81431 1.73614 9.84081 1.83827C9.8673 1.9404 9.83653 2.03549 9.74851 2.12352C9.6562 2.21583 9.54572 2.27224 9.41709 2.29275C9.28847 2.31326 9.16774 2.29531 9.05492 2.2389C8.69731 2.08335 8.3341 1.96113 7.96529 1.87224C7.59647 1.78335 7.21652 1.7389 6.82544 1.7389C5.38099 1.7389 4.15322 2.24446 3.14211 3.25557C2.131 4.26668 1.62544 5.49446 1.62544 6.9389Z" fill="#1C1B1F"/>
</svg>
